<?xml version="1.0" encoding="us-ascii" standalone="no"?><svg xmlns="http://www.w3.org/2000/svg" xmlns:xlink="http://www.w3.org/1999/xlink" contentStyleType="text/css" height="1927px" preserveAspectRatio="none" style="width:3529px;height:1927px;background:#FFFFFF;" version="1.1" viewBox="0 0 3529 1927" width="3529px" zoomAndPan="magnify"><defs/><g><!--class User--><g id="elem_User"><rect codeLine="2" fill="#F1F1F1" height="171.2656" id="User" rx="2.5" ry="2.5" style="stroke:#181818;stroke-width:0.5;" width="163" x="2904" y="1749"/><ellipse cx="2966.75" cy="1765" fill="#ADD1B2" rx="11" ry="11" style="stroke:#181818;stroke-width:1.0;"/><path d="M2969.5156,1760.875 Q2969.6719,1760.6563 2969.8594,1760.5469 Q2970.0469,1760.4375 2970.2656,1760.4375 Q2970.6406,1760.4375 2970.875,1760.7031 Q2971.1094,1760.9531 2971.1094,1761.5625 L2971.1094,1763.0156 Q2971.1094,1763.625 2970.875,1763.8906 Q2970.6406,1764.1563 2970.2656,1764.1563 Q2969.9219,1764.1563 2969.7188,1763.9531 Q2969.5156,1763.7656 2969.4063,1763.25 Q2969.3594,1762.8906 2969.1719,1762.7031 Q2968.8438,1762.3281 2968.2344,1762.1094 Q2967.625,1761.8906 2967,1761.8906 Q2966.2344,1761.8906 2965.5938,1762.2188 Q2964.9688,1762.5469 2964.4688,1763.2969 Q2963.9844,1764.0469 2963.9844,1765.0781 L2963.9844,1766.1719 Q2963.9844,1767.4063 2964.875,1768.2344 Q2965.7656,1769.0469 2967.3594,1769.0469 Q2968.2969,1769.0469 2968.9531,1768.7969 Q2969.3438,1768.6406 2969.7656,1768.2031 Q2970.0313,1767.9375 2970.1719,1767.8594 Q2970.3281,1767.7813 2970.5313,1767.7813 Q2970.8594,1767.7813 2971.1094,1768.0469 Q2971.375,1768.2969 2971.375,1768.6406 Q2971.375,1768.9844 2971.0313,1769.3906 Q2970.5313,1769.9688 2969.7344,1770.2969 Q2968.6563,1770.75 2967.3594,1770.75 Q2965.8438,1770.75 2964.6406,1770.125 Q2963.6563,1769.625 2962.9688,1768.5625 Q2962.2813,1767.4844 2962.2813,1766.2031 L2962.2813,1765.0469 Q2962.2813,1763.7188 2962.8906,1762.5781 Q2963.5156,1761.4219 2964.6094,1760.8125 Q2965.7031,1760.1875 2966.9375,1760.1875 Q2967.6719,1760.1875 2968.3125,1760.3594 Q2968.9688,1760.5156 2969.5156,1760.875 Z " fill="#000000"/><text fill="#000000" font-family="sans-serif" font-size="14" lengthAdjust="spacing" textLength="29" x="2987.25" y="1770.7285">User</text><line style="stroke:#181818;stroke-width:0.5;" x1="2905" x2="3066" y1="1781" y2="1781"/><rect fill="none" height="6" style="stroke:#C82930;stroke-width:1.0;" width="6" x="2912" y="1792.3047"/><text fill="#000000" font-family="sans-serif" font-size="14" lengthAdjust="spacing" textLength="136" x="2924" y="1799.5332">accessToken: Cookie</text><rect fill="none" height="6" style="stroke:#C82930;stroke-width:1.0;" width="6" x="2912" y="1809.9141"/><text fill="#000000" font-family="sans-serif" font-size="14" lengthAdjust="spacing" textLength="137" x="2924" y="1817.1426">refreshToken: Cookie</text><text fill="#000000" font-family="sans-serif" font-size="14" lengthAdjust="spacing" textLength="4" x="2924" y="1834.752">&#160;</text><rect fill="none" height="6" style="stroke:#C82930;stroke-width:1.0;" width="6" x="2912" y="1845.1328"/><text fill="#000000" font-family="sans-serif" font-size="14" lengthAdjust="spacing" textLength="78" x="2924" y="1852.3613">email: String</text><rect fill="none" height="6" style="stroke:#C82930;stroke-width:1.0;" width="6" x="2912" y="1862.7422"/><text fill="#000000" font-family="sans-serif" font-size="14" lengthAdjust="spacing" textLength="134" x="2924" y="1869.9707">phoneNumber: String</text><rect fill="none" height="6" style="stroke:#C82930;stroke-width:1.0;" width="6" x="2912" y="1880.3516"/><text fill="#000000" font-family="sans-serif" font-size="14" lengthAdjust="spacing" textLength="108" x="2924" y="1887.5801">username: String</text><rect fill="none" height="6" style="stroke:#C82930;stroke-width:1.0;" width="6" x="2912" y="1897.9609"/><text fill="#000000" font-family="sans-serif" font-size="14" lengthAdjust="spacing" textLength="105" x="2924" y="1905.1895">password: String</text><line style="stroke:#181818;stroke-width:0.5;" x1="2905" x2="3066" y1="1912.2656" y2="1912.2656"/></g><path d="M2470,1816.5 L2470,1842.8516 A0,0 0 0 0 2470,1842.8516 L2869,1842.8516 A0,0 0 0 0 2869,1842.8516 L2869,1834.5 L2908,1811.4141 L2869,1826.5 L2869,1826.5 L2859,1816.5 L2470,1816.5 A0,0 0 0 0 2470,1816.5 " fill="#FEFFDD" style="stroke:#181818;stroke-width:0.5;"/><path d="M2859,1816.5 L2859,1826.5 L2869,1826.5 L2859,1816.5 " fill="#FEFFDD" style="stroke:#181818;stroke-width:0.5;"/><text fill="#000000" font-family="sans-serif" font-size="13" lengthAdjust="spacing" textLength="378" x="2476" y="1834.9951">A long lasting token, used to refresh the short lived accessToken.</text><!--class Frontend--><g id="elem_Frontend"><rect codeLine="20" fill="#F1F1F1" height="241.7031" id="Frontend" rx="2.5" ry="2.5" style="stroke:#181818;stroke-width:0.5;" width="329" x="2821" y="1447"/><ellipse cx="2952.25" cy="1463" fill="#ADD1B2" rx="11" ry="11" style="stroke:#181818;stroke-width:1.0;"/><path d="M2955.0156,1458.875 Q2955.1719,1458.6563 2955.3594,1458.5469 Q2955.5469,1458.4375 2955.7656,1458.4375 Q2956.1406,1458.4375 2956.375,1458.7031 Q2956.6094,1458.9531 2956.6094,1459.5625 L2956.6094,1461.0156 Q2956.6094,1461.625 2956.375,1461.8906 Q2956.1406,1462.1563 2955.7656,1462.1563 Q2955.4219,1462.1563 2955.2188,1461.9531 Q2955.0156,1461.7656 2954.9063,1461.25 Q2954.8594,1460.8906 2954.6719,1460.7031 Q2954.3438,1460.3281 2953.7344,1460.1094 Q2953.125,1459.8906 2952.5,1459.8906 Q2951.7344,1459.8906 2951.0938,1460.2188 Q2950.4688,1460.5469 2949.9688,1461.2969 Q2949.4844,1462.0469 2949.4844,1463.0781 L2949.4844,1464.1719 Q2949.4844,1465.4063 2950.375,1466.2344 Q2951.2656,1467.0469 2952.8594,1467.0469 Q2953.7969,1467.0469 2954.4531,1466.7969 Q2954.8438,1466.6406 2955.2656,1466.2031 Q2955.5313,1465.9375 2955.6719,1465.8594 Q2955.8281,1465.7813 2956.0313,1465.7813 Q2956.3594,1465.7813 2956.6094,1466.0469 Q2956.875,1466.2969 2956.875,1466.6406 Q2956.875,1466.9844 2956.5313,1467.3906 Q2956.0313,1467.9688 2955.2344,1468.2969 Q2954.1563,1468.75 2952.8594,1468.75 Q2951.3438,1468.75 2950.1406,1468.125 Q2949.1563,1467.625 2948.4688,1466.5625 Q2947.7813,1465.4844 2947.7813,1464.2031 L2947.7813,1463.0469 Q2947.7813,1461.7188 2948.3906,1460.5781 Q2949.0156,1459.4219 2950.1094,1458.8125 Q2951.2031,1458.1875 2952.4375,1458.1875 Q2953.1719,1458.1875 2953.8125,1458.3594 Q2954.4688,1458.5156 2955.0156,1458.875 Z " fill="#000000"/><text fill="#000000" font-family="sans-serif" font-size="14" lengthAdjust="spacing" textLength="58" x="2972.75" y="1468.7285">Frontend</text><line style="stroke:#181818;stroke-width:0.5;" x1="2822" x2="3149" y1="1479" y2="1479"/><rect fill="none" height="6" style="stroke:#C82930;stroke-width:1.0;" width="6" x="2829" y="1490.3047"/><text fill="#000000" font-family="sans-serif" font-size="14" lengthAdjust="spacing" textLength="145" x="2841" y="1497.5332">framework: React_Next</text><rect fill="none" height="6" style="stroke:#C82930;stroke-width:1.0;" width="6" x="2829" y="1507.9141"/><text fill="#000000" font-family="sans-serif" font-size="14" lengthAdjust="spacing" textLength="192" x="2841" y="1515.1426">instanceType: VercelManaged</text><line style="stroke:#181818;stroke-width:0.5;" x1="2822" x2="3149" y1="1522.2188" y2="1522.2188"/><ellipse cx="2832" cy="1536.5234" fill="#84BE84" rx="3" ry="3" style="stroke:#038048;stroke-width:1.0;"/><text fill="#000000" font-family="sans-serif" font-size="14" lengthAdjust="spacing" textLength="302" x="2841" y="1540.752">createWorkflow(accessToken: Cookie): boolean</text><ellipse cx="2832" cy="1554.1328" fill="#84BE84" rx="3" ry="3" style="stroke:#038048;stroke-width:1.0;"/><text fill="#000000" font-family="sans-serif" font-size="14" lengthAdjust="spacing" textLength="301" x="2841" y="1558.3613">deleteWorkflow(accessToken: Cookie): boolean</text><ellipse cx="2832" cy="1571.7422" fill="#84BE84" rx="3" ry="3" style="stroke:#038048;stroke-width:1.0;"/><text fill="#000000" font-family="sans-serif" font-size="14" lengthAdjust="spacing" textLength="303" x="2841" y="1575.9707">modifyWorkflow(accessToken: Cookie): boolean</text><ellipse cx="2832" cy="1589.3516" fill="#84BE84" rx="3" ry="3" style="stroke:#038048;stroke-width:1.0;"/><text fill="#000000" font-family="sans-serif" font-size="14" lengthAdjust="spacing" textLength="286" x="2841" y="1593.5801">listWorkflows(accessToken: Cookie): boolean</text><text fill="#000000" font-family="sans-serif" font-size="14" lengthAdjust="spacing" textLength="4" x="2841" y="1611.1895">&#160;</text><ellipse cx="2832" cy="1624.5703" fill="#84BE84" rx="3" ry="3" style="stroke:#038048;stroke-width:1.0;"/><text fill="#000000" font-family="sans-serif" font-size="14" lengthAdjust="spacing" textLength="99" x="2841" y="1628.7988">signIn(): Cookie</text><ellipse cx="2832" cy="1642.1797" fill="#84BE84" rx="3" ry="3" style="stroke:#038048;stroke-width:1.0;"/><text fill="#000000" font-family="sans-serif" font-size="14" lengthAdjust="spacing" textLength="111" x="2841" y="1646.4082">signOut(): Cookie</text><ellipse cx="2832" cy="1659.7891" fill="#84BE84" rx="3" ry="3" style="stroke:#038048;stroke-width:1.0;"/><text fill="#000000" font-family="sans-serif" font-size="14" lengthAdjust="spacing" textLength="145" x="2841" y="1664.0176">resetPassword(): Email</text><ellipse cx="2832" cy="1677.3984" fill="#84BE84" rx="3" ry="3" style="stroke:#038048;stroke-width:1.0;"/><text fill="#000000" font-family="sans-serif" font-size="14" lengthAdjust="spacing" textLength="110" x="2841" y="1681.627">reset2FA(): Email</text></g><path d="M2265.5,1513.5 L2265.5,1539.8516 A0,0 0 0 0 2265.5,1539.8516 L2785.5,1539.8516 A0,0 0 0 0 2785.5,1539.8516 L2785.5,1531.5 L2825,1535.0234 L2785.5,1523.5 L2785.5,1523.5 L2775.5,1513.5 L2265.5,1513.5 A0,0 0 0 0 2265.5,1513.5 " fill="#FEFFDD" style="stroke:#181818;stroke-width:0.5;"/><path d="M2775.5,1513.5 L2775.5,1523.5 L2785.5,1523.5 L2775.5,1513.5 " fill="#FEFFDD" style="stroke:#181818;stroke-width:0.5;"/><text fill="#000000" font-family="sans-serif" font-size="13" lengthAdjust="spacing" textLength="499" x="2271.5" y="1531.9951">Returns true if APIGateway received the message. Not if the message was processed.</text><path d="M2265.5,1549.8516 L2265.5,1576.2031 A0,0 0 0 0 2265.5,1576.2031 L2616.5,1576.2031 A0,0 0 0 0 2616.5,1576.2031 L2616.5,1567.8516 L2825,1658.2891 L2616.5,1559.8516 L2616.5,1559.8516 L2606.5,1549.8516 L2265.5,1549.8516 A0,0 0 0 0 2265.5,1549.8516 " fill="#FEFFDD" style="stroke:#181818;stroke-width:0.5;"/><path d="M2606.5,1549.8516 L2606.5,1559.8516 L2616.5,1559.8516 L2606.5,1549.8516 " fill="#FEFFDD" style="stroke:#181818;stroke-width:0.5;"/><text fill="#000000" font-family="sans-serif" font-size="13" lengthAdjust="spacing" textLength="330" x="2271.5" y="1568.3467">Sends message to email, needing to use 2FA to confirm.</text><path d="M2265.5,1586.2031 L2265.5,1612.5547 A0,0 0 0 0 2265.5,1612.5547 L2757.5,1612.5547 A0,0 0 0 0 2757.5,1612.5547 L2757.5,1604.2031 L2825,1675.8984 L2757.5,1596.2031 L2757.5,1596.2031 L2747.5,1586.2031 L2265.5,1586.2031 A0,0 0 0 0 2265.5,1586.2031 " fill="#FEFFDD" style="stroke:#181818;stroke-width:0.5;"/><path d="M2747.5,1586.2031 L2747.5,1596.2031 L2757.5,1596.2031 L2747.5,1586.2031 " fill="#FEFFDD" style="stroke:#181818;stroke-width:0.5;"/><text fill="#000000" font-family="sans-serif" font-size="13" lengthAdjust="spacing" textLength="471" x="2271.5" y="1604.6982">Sends message to email, needing to specify what the previous number used was.</text><!--class ReverseProxy--><g id="elem_ReverseProxy"><rect codeLine="51" fill="#F1F1F1" height="136.0469" id="ReverseProxy" rx="2.5" ry="2.5" style="stroke:#181818;stroke-width:0.5;" width="266" x="2852.5" y="1251"/><ellipse cx="2937.25" cy="1267" fill="#ADD1B2" rx="11" ry="11" style="stroke:#181818;stroke-width:1.0;"/><path d="M2940.0156,1262.875 Q2940.1719,1262.6563 2940.3594,1262.5469 Q2940.5469,1262.4375 2940.7656,1262.4375 Q2941.1406,1262.4375 2941.375,1262.7031 Q2941.6094,1262.9531 2941.6094,1263.5625 L2941.6094,1265.0156 Q2941.6094,1265.625 2941.375,1265.8906 Q2941.1406,1266.1563 2940.7656,1266.1563 Q2940.4219,1266.1563 2940.2188,1265.9531 Q2940.0156,1265.7656 2939.9063,1265.25 Q2939.8594,1264.8906 2939.6719,1264.7031 Q2939.3438,1264.3281 2938.7344,1264.1094 Q2938.125,1263.8906 2937.5,1263.8906 Q2936.7344,1263.8906 2936.0938,1264.2188 Q2935.4688,1264.5469 2934.9688,1265.2969 Q2934.4844,1266.0469 2934.4844,1267.0781 L2934.4844,1268.1719 Q2934.4844,1269.4063 2935.375,1270.2344 Q2936.2656,1271.0469 2937.8594,1271.0469 Q2938.7969,1271.0469 2939.4531,1270.7969 Q2939.8438,1270.6406 2940.2656,1270.2031 Q2940.5313,1269.9375 2940.6719,1269.8594 Q2940.8281,1269.7813 2941.0313,1269.7813 Q2941.3594,1269.7813 2941.6094,1270.0469 Q2941.875,1270.2969 2941.875,1270.6406 Q2941.875,1270.9844 2941.5313,1271.3906 Q2941.0313,1271.9688 2940.2344,1272.2969 Q2939.1563,1272.75 2937.8594,1272.75 Q2936.3438,1272.75 2935.1406,1272.125 Q2934.1563,1271.625 2933.4688,1270.5625 Q2932.7813,1269.4844 2932.7813,1268.2031 L2932.7813,1267.0469 Q2932.7813,1265.7188 2933.3906,1264.5781 Q2934.0156,1263.4219 2935.1094,1262.8125 Q2936.2031,1262.1875 2937.4375,1262.1875 Q2938.1719,1262.1875 2938.8125,1262.3594 Q2939.4688,1262.5156 2940.0156,1262.875 Z " fill="#000000"/><text fill="#000000" font-family="sans-serif" font-size="14" lengthAdjust="spacing" textLength="88" x="2957.75" y="1272.7285">ReverseProxy</text><line style="stroke:#181818;stroke-width:0.5;" x1="2853.5" x2="3117.5" y1="1283" y2="1283"/><rect fill="none" height="6" style="stroke:#C82930;stroke-width:1.0;" width="6" x="2860.5" y="1294.3047"/><text fill="#000000" font-family="sans-serif" font-size="14" lengthAdjust="spacing" textLength="113" x="2872.5" y="1301.5332">framework: NGINX</text><rect fill="none" height="6" style="stroke:#C82930;stroke-width:1.0;" width="6" x="2860.5" y="1311.9141"/><text fill="#000000" font-family="sans-serif" font-size="14" lengthAdjust="spacing" textLength="114" x="2872.5" y="1319.1426">https: LetsEncrypt</text><rect fill="none" height="6" style="stroke:#C82930;stroke-width:1.0;" width="6" x="2860.5" y="1329.5234"/><text fill="#000000" font-family="sans-serif" font-size="14" lengthAdjust="spacing" textLength="123" x="2872.5" y="1336.752">instanceType: AMD</text><line style="stroke:#181818;stroke-width:0.5;" x1="2853.5" x2="3117.5" y1="1343.8281" y2="1343.8281"/><ellipse cx="2863.5" cy="1358.1328" fill="#84BE84" rx="3" ry="3" style="stroke:#038048;stroke-width:1.0;"/><text fill="#000000" font-family="sans-serif" font-size="14" lengthAdjust="spacing" textLength="240" x="2872.5" y="1362.3613">httpsHandshakeTermination(): HTTPS</text><ellipse cx="2863.5" cy="1375.7422" fill="#84BE84" rx="3" ry="3" style="stroke:#038048;stroke-width:1.0;"/><text fill="#000000" font-family="sans-serif" font-size="14" lengthAdjust="spacing" textLength="232" x="2872.5" y="1379.9707">loadBalanceToAPIGateways(): HTTP</text></g><path d="M2368,1301 L2368,1327.3516 A0,0 0 0 0 2368,1327.3516 L2817,1327.3516 A0,0 0 0 0 2817,1327.3516 L2817,1319 L2856.5,1356.6328 L2817,1311 L2817,1311 L2807,1301 L2368,1301 A0,0 0 0 0 2368,1301 " fill="#FEFFDD" style="stroke:#181818;stroke-width:0.5;"/><path d="M2807,1301 L2807,1311 L2817,1311 L2807,1301 " fill="#FEFFDD" style="stroke:#181818;stroke-width:0.5;"/><text fill="#000000" font-family="sans-serif" font-size="13" lengthAdjust="spacing" textLength="428" x="2374" y="1319.4951">Holds the domain name and terminates HTTPS traffic, converting to HTTP.</text><!--class APIGateway--><g id="elem_APIGateway"><rect codeLine="67" fill="#F1F1F1" height="171.2656" id="APIGateway" rx="2.5" ry="2.5" style="stroke:#181818;stroke-width:0.5;" width="228" x="2871.5" y="1020"/><ellipse cx="2943.25" cy="1036" fill="#ADD1B2" rx="11" ry="11" style="stroke:#181818;stroke-width:1.0;"/><path d="M2946.0156,1031.875 Q2946.1719,1031.6563 2946.3594,1031.5469 Q2946.5469,1031.4375 2946.7656,1031.4375 Q2947.1406,1031.4375 2947.375,1031.7031 Q2947.6094,1031.9531 2947.6094,1032.5625 L2947.6094,1034.0156 Q2947.6094,1034.625 2947.375,1034.8906 Q2947.1406,1035.1563 2946.7656,1035.1563 Q2946.4219,1035.1563 2946.2188,1034.9531 Q2946.0156,1034.7656 2945.9063,1034.25 Q2945.8594,1033.8906 2945.6719,1033.7031 Q2945.3438,1033.3281 2944.7344,1033.1094 Q2944.125,1032.8906 2943.5,1032.8906 Q2942.7344,1032.8906 2942.0938,1033.2188 Q2941.4688,1033.5469 2940.9688,1034.2969 Q2940.4844,1035.0469 2940.4844,1036.0781 L2940.4844,1037.1719 Q2940.4844,1038.4063 2941.375,1039.2344 Q2942.2656,1040.0469 2943.8594,1040.0469 Q2944.7969,1040.0469 2945.4531,1039.7969 Q2945.8438,1039.6406 2946.2656,1039.2031 Q2946.5313,1038.9375 2946.6719,1038.8594 Q2946.8281,1038.7813 2947.0313,1038.7813 Q2947.3594,1038.7813 2947.6094,1039.0469 Q2947.875,1039.2969 2947.875,1039.6406 Q2947.875,1039.9844 2947.5313,1040.3906 Q2947.0313,1040.9688 2946.2344,1041.2969 Q2945.1563,1041.75 2943.8594,1041.75 Q2942.3438,1041.75 2941.1406,1041.125 Q2940.1563,1040.625 2939.4688,1039.5625 Q2938.7813,1038.4844 2938.7813,1037.2031 L2938.7813,1036.0469 Q2938.7813,1034.7188 2939.3906,1033.5781 Q2940.0156,1032.4219 2941.1094,1031.8125 Q2942.2031,1031.1875 2943.4375,1031.1875 Q2944.1719,1031.1875 2944.8125,1031.3594 Q2945.4688,1031.5156 2946.0156,1031.875 Z " fill="#000000"/><text fill="#000000" font-family="sans-serif" font-size="14" lengthAdjust="spacing" textLength="76" x="2963.75" y="1041.7285">APIGateway</text><line style="stroke:#181818;stroke-width:0.5;" x1="2872.5" x2="3098.5" y1="1052" y2="1052"/><rect fill="none" height="6" style="stroke:#C82930;stroke-width:1.0;" width="6" x="2879.5" y="1063.3047"/><text fill="#000000" font-family="sans-serif" font-size="14" lengthAdjust="spacing" textLength="151" x="2891.5" y="1070.5332">framework: SpringCloud</text><rect fill="none" height="6" style="stroke:#C82930;stroke-width:1.0;" width="6" x="2879.5" y="1080.9141"/><text fill="#000000" font-family="sans-serif" font-size="14" lengthAdjust="spacing" textLength="123" x="2891.5" y="1088.1426">instanceType: AMD</text><line style="stroke:#181818;stroke-width:0.5;" x1="2872.5" x2="3098.5" y1="1095.2188" y2="1095.2188"/><ellipse cx="2882.5" cy="1109.5234" fill="#84BE84" rx="3" ry="3" style="stroke:#038048;stroke-width:1.0;"/><text fill="#000000" font-family="sans-serif" font-size="14" lengthAdjust="spacing" textLength="86" x="2891.5" y="1113.752">logging(): null</text><ellipse cx="2882.5" cy="1127.1328" fill="#84BE84" rx="3" ry="3" style="stroke:#038048;stroke-width:1.0;"/><text fill="#000000" font-family="sans-serif" font-size="14" lengthAdjust="spacing" textLength="127" x="2891.5" y="1131.3613">rateLimiting(): HTTP</text><ellipse cx="2882.5" cy="1144.7422" fill="#84BE84" rx="3" ry="3" style="stroke:#038048;stroke-width:1.0;"/><text fill="#000000" font-family="sans-serif" font-size="14" lengthAdjust="spacing" textLength="94" x="2891.5" y="1148.9707">retries(): HTTP</text><ellipse cx="2882.5" cy="1162.3516" fill="#84BE84" rx="3" ry="3" style="stroke:#038048;stroke-width:1.0;"/><text fill="#000000" font-family="sans-serif" font-size="14" lengthAdjust="spacing" textLength="177" x="2891.5" y="1166.5801">urlBasedResolution(): HTTP</text><ellipse cx="2882.5" cy="1179.9609" fill="#84BE84" rx="3" ry="3" style="stroke:#038048;stroke-width:1.0;"/><text fill="#000000" font-family="sans-serif" font-size="14" lengthAdjust="spacing" textLength="202" x="2891.5" y="1184.1895">loadBalancedDiscovery(): HTTP</text></g><path d="M2216.5,1069 L2216.5,1095.3516 A0,0 0 0 0 2216.5,1095.3516 L2527.5,1095.3516 A0,0 0 0 0 2527.5,1095.3516 L2527.5,1087 L2875.5,1082.4141 L2527.5,1079 L2527.5,1079 L2517.5,1069 L2216.5,1069 A0,0 0 0 0 2216.5,1069 " fill="#FEFFDD" style="stroke:#181818;stroke-width:0.5;"/><path d="M2517.5,1069 L2517.5,1079 L2527.5,1079 L2517.5,1069 " fill="#FEFFDD" style="stroke:#181818;stroke-width:0.5;"/><text fill="#000000" font-family="sans-serif" font-size="13" lengthAdjust="spacing" textLength="290" x="2222.5" y="1087.4951">Uses a standard instance instead of a preemptible</text><path d="M2216.5,1105.3516 L2216.5,1131.7031 A0,0 0 0 0 2216.5,1131.7031 L2836.5,1131.7031 A0,0 0 0 0 2836.5,1131.7031 L2836.5,1123.3516 L2875.5,1064.8047 L2836.5,1115.3516 L2836.5,1115.3516 L2826.5,1105.3516 L2216.5,1105.3516 A0,0 0 0 0 2216.5,1105.3516 " fill="#FEFFDD" style="stroke:#181818;stroke-width:0.5;"/><path d="M2826.5,1105.3516 L2826.5,1115.3516 L2836.5,1115.3516 L2826.5,1105.3516 " fill="#FEFFDD" style="stroke:#181818;stroke-width:0.5;"/><text fill="#000000" font-family="sans-serif" font-size="13" lengthAdjust="spacing" textLength="599" x="2222.5" y="1123.8467">Uses Spring Cloud and Eureka for tightly coupled network requests, load balancing across preemptibles</text><!--class ServiceDiscovery--><g id="elem_ServiceDiscovery"><rect codeLine="89" fill="#F1F1F1" height="188.875" id="ServiceDiscovery" rx="2.5" ry="2.5" style="stroke:#181818;stroke-width:0.5;" width="278" x="2947.5" y="487"/><ellipse cx="3027.75" cy="503" fill="#ADD1B2" rx="11" ry="11" style="stroke:#181818;stroke-width:1.0;"/><path d="M3030.5156,498.875 Q3030.6719,498.6563 3030.8594,498.5469 Q3031.0469,498.4375 3031.2656,498.4375 Q3031.6406,498.4375 3031.875,498.7031 Q3032.1094,498.9531 3032.1094,499.5625 L3032.1094,501.0156 Q3032.1094,501.625 3031.875,501.8906 Q3031.6406,502.1563 3031.2656,502.1563 Q3030.9219,502.1563 3030.7188,501.9531 Q3030.5156,501.7656 3030.4063,501.25 Q3030.3594,500.8906 3030.1719,500.7031 Q3029.8438,500.3281 3029.2344,500.1094 Q3028.625,499.8906 3028,499.8906 Q3027.2344,499.8906 3026.5938,500.2188 Q3025.9688,500.5469 3025.4688,501.2969 Q3024.9844,502.0469 3024.9844,503.0781 L3024.9844,504.1719 Q3024.9844,505.4063 3025.875,506.2344 Q3026.7656,507.0469 3028.3594,507.0469 Q3029.2969,507.0469 3029.9531,506.7969 Q3030.3438,506.6406 3030.7656,506.2031 Q3031.0313,505.9375 3031.1719,505.8594 Q3031.3281,505.7813 3031.5313,505.7813 Q3031.8594,505.7813 3032.1094,506.0469 Q3032.375,506.2969 3032.375,506.6406 Q3032.375,506.9844 3032.0313,507.3906 Q3031.5313,507.9688 3030.7344,508.2969 Q3029.6563,508.75 3028.3594,508.75 Q3026.8438,508.75 3025.6406,508.125 Q3024.6563,507.625 3023.9688,506.5625 Q3023.2813,505.4844 3023.2813,504.2031 L3023.2813,503.0469 Q3023.2813,501.7188 3023.8906,500.5781 Q3024.5156,499.4219 3025.6094,498.8125 Q3026.7031,498.1875 3027.9375,498.1875 Q3028.6719,498.1875 3029.3125,498.3594 Q3029.9688,498.5156 3030.5156,498.875 Z " fill="#000000"/><text fill="#000000" font-family="sans-serif" font-size="14" lengthAdjust="spacing" textLength="109" x="3048.25" y="508.7285">ServiceDiscovery</text><line style="stroke:#181818;stroke-width:0.5;" x1="2948.5" x2="3224.5" y1="519" y2="519"/><rect fill="none" height="6" style="stroke:#C82930;stroke-width:1.0;" width="6" x="2955.5" y="530.3047"/><text fill="#000000" font-family="sans-serif" font-size="14" lengthAdjust="spacing" textLength="118" x="2967.5" y="537.5332">framework: Eureka</text><rect fill="none" height="6" style="stroke:#C82930;stroke-width:1.0;" width="6" x="2955.5" y="547.9141"/><text fill="#000000" font-family="sans-serif" font-size="14" lengthAdjust="spacing" textLength="123" x="2967.5" y="555.1426">instanceType: ARM</text><line style="stroke:#181818;stroke-width:0.5;" x1="2948.5" x2="3224.5" y1="562.2188" y2="562.2188"/><ellipse cx="2958.5" cy="576.5234" fill="#84BE84" rx="3" ry="3" style="stroke:#038048;stroke-width:1.0;"/><text fill="#000000" font-family="sans-serif" font-size="14" lengthAdjust="spacing" textLength="165" x="2967.5" y="580.752">authLoadBalance(): HTTP</text><ellipse cx="2958.5" cy="594.1328" fill="#84BE84" rx="3" ry="3" style="stroke:#038048;stroke-width:1.0;"/><text fill="#000000" font-family="sans-serif" font-size="14" lengthAdjust="spacing" textLength="182" x="2967.5" y="598.3613">authServiceConnect(): HTTP</text><ellipse cx="2958.5" cy="611.7422" fill="#84BE84" rx="3" ry="3" style="stroke:#038048;stroke-width:1.0;"/><text fill="#000000" font-family="sans-serif" font-size="14" lengthAdjust="spacing" textLength="192" x="2967.5" y="615.9707">authServiceHeartBeat(): HTTP</text><ellipse cx="2958.5" cy="629.3516" fill="#84BE84" rx="3" ry="3" style="stroke:#038048;stroke-width:1.0;"/><text fill="#000000" font-family="sans-serif" font-size="14" lengthAdjust="spacing" textLength="252" x="2967.5" y="633.5801">workflowControllerLoadBalance(): HTTP</text><ellipse cx="2958.5" cy="646.9609" fill="#84BE84" rx="3" ry="3" style="stroke:#038048;stroke-width:1.0;"/><text fill="#000000" font-family="sans-serif" font-size="14" lengthAdjust="spacing" textLength="222" x="2967.5" y="651.1895">workflowControllerConnect(): HTTP</text><ellipse cx="2958.5" cy="664.5703" fill="#84BE84" rx="3" ry="3" style="stroke:#038048;stroke-width:1.0;"/><text fill="#000000" font-family="sans-serif" font-size="14" lengthAdjust="spacing" textLength="232" x="2967.5" y="668.7988">workflowControllerHeartBeat(): HTTP</text></g><path d="M2305,563.5 L2305,589.8516 A0,0 0 0 0 2305,589.8516 L2912,589.8516 A0,0 0 0 0 2912,589.8516 L2912,581.5 L2951.5,531.8047 L2912,573.5 L2912,573.5 L2902,563.5 L2305,563.5 A0,0 0 0 0 2305,563.5 " fill="#FEFFDD" style="stroke:#181818;stroke-width:0.5;"/><path d="M2902,563.5 L2902,573.5 L2912,573.5 L2902,563.5 " fill="#FEFFDD" style="stroke:#181818;stroke-width:0.5;"/><text fill="#000000" font-family="sans-serif" font-size="13" lengthAdjust="spacing" textLength="586" x="2311" y="581.9951">Standalone service that allows service discovery for clusters where network requests are synchronous</text><!--class Auth--><g id="elem_Auth"><rect codeLine="108" fill="#F1F1F1" height="224.0938" id="Auth" rx="2.5" ry="2.5" style="stroke:#181818;stroke-width:0.5;" width="265" x="3257" y="736"/><ellipse cx="3370.75" cy="752" fill="#ADD1B2" rx="11" ry="11" style="stroke:#181818;stroke-width:1.0;"/><path d="M3373.5156,747.875 Q3373.6719,747.6563 3373.8594,747.5469 Q3374.0469,747.4375 3374.2656,747.4375 Q3374.6406,747.4375 3374.875,747.7031 Q3375.1094,747.9531 3375.1094,748.5625 L3375.1094,750.0156 Q3375.1094,750.625 3374.875,750.8906 Q3374.6406,751.1563 3374.2656,751.1563 Q3373.9219,751.1563 3373.7188,750.9531 Q3373.5156,750.7656 3373.4063,750.25 Q3373.3594,749.8906 3373.1719,749.7031 Q3372.8438,749.3281 3372.2344,749.1094 Q3371.625,748.8906 3371,748.8906 Q3370.2344,748.8906 3369.5938,749.2188 Q3368.9688,749.5469 3368.4688,750.2969 Q3367.9844,751.0469 3367.9844,752.0781 L3367.9844,753.1719 Q3367.9844,754.4063 3368.875,755.2344 Q3369.7656,756.0469 3371.3594,756.0469 Q3372.2969,756.0469 3372.9531,755.7969 Q3373.3438,755.6406 3373.7656,755.2031 Q3374.0313,754.9375 3374.1719,754.8594 Q3374.3281,754.7813 3374.5313,754.7813 Q3374.8594,754.7813 3375.1094,755.0469 Q3375.375,755.2969 3375.375,755.6406 Q3375.375,755.9844 3375.0313,756.3906 Q3374.5313,756.9688 3373.7344,757.2969 Q3372.6563,757.75 3371.3594,757.75 Q3369.8438,757.75 3368.6406,757.125 Q3367.6563,756.625 3366.9688,755.5625 Q3366.2813,754.4844 3366.2813,753.2031 L3366.2813,752.0469 Q3366.2813,750.7188 3366.8906,749.5781 Q3367.5156,748.4219 3368.6094,747.8125 Q3369.7031,747.1875 3370.9375,747.1875 Q3371.6719,747.1875 3372.3125,747.3594 Q3372.9688,747.5156 3373.5156,747.875 Z " fill="#000000"/><text fill="#000000" font-family="sans-serif" font-size="14" lengthAdjust="spacing" textLength="29" x="3391.25" y="757.7285">Auth</text><line style="stroke:#181818;stroke-width:0.5;" x1="3258" x2="3521" y1="768" y2="768"/><rect fill="none" height="6" style="stroke:#C82930;stroke-width:1.0;" width="6" x="3265" y="779.3047"/><text fill="#000000" font-family="sans-serif" font-size="14" lengthAdjust="spacing" textLength="165" x="3277" y="786.5332">framework: SpringSecurity</text><rect fill="none" height="6" style="stroke:#C82930;stroke-width:1.0;" width="6" x="3265" y="796.9141"/><text fill="#000000" font-family="sans-serif" font-size="14" lengthAdjust="spacing" textLength="239" x="3277" y="804.1426">instanceType: ARM_And_Preemptible</text><line style="stroke:#181818;stroke-width:0.5;" x1="3258" x2="3521" y1="811.2188" y2="811.2188"/><ellipse cx="3268" cy="825.5234" fill="#84BE84" rx="3" ry="3" style="stroke:#038048;stroke-width:1.0;"/><text fill="#000000" font-family="sans-serif" font-size="14" lengthAdjust="spacing" textLength="86" x="3277" y="829.752">logging(): null</text><ellipse cx="3268" cy="843.1328" fill="#84BE84" rx="3" ry="3" style="stroke:#038048;stroke-width:1.0;"/><text fill="#000000" font-family="sans-serif" font-size="14" lengthAdjust="spacing" textLength="156" x="3277" y="847.3613">userPassLogin(): Cookie</text><ellipse cx="3268" cy="860.7422" fill="#84BE84" rx="3" ry="3" style="stroke:#038048;stroke-width:1.0;"/><text fill="#000000" font-family="sans-serif" font-size="14" lengthAdjust="spacing" textLength="182" x="3277" y="864.9707">userPass2FALogin(): Cookie</text><ellipse cx="3268" cy="878.3516" fill="#84BE84" rx="3" ry="3" style="stroke:#038048;stroke-width:1.0;"/><text fill="#000000" font-family="sans-serif" font-size="14" lengthAdjust="spacing" textLength="83" x="3277" y="882.5801">signUp(): null</text><ellipse cx="3268" cy="895.9609" fill="#84BE84" rx="3" ry="3" style="stroke:#038048;stroke-width:1.0;"/><text fill="#000000" font-family="sans-serif" font-size="14" lengthAdjust="spacing" textLength="89" x="3277" y="900.1895">signOut(): null</text><ellipse cx="3268" cy="913.5703" fill="#84BE84" rx="3" ry="3" style="stroke:#038048;stroke-width:1.0;"/><text fill="#000000" font-family="sans-serif" font-size="14" lengthAdjust="spacing" textLength="192" x="3277" y="917.7988">refreshAccessToken(): Cookie</text><ellipse cx="3268" cy="931.1797" fill="#84BE84" rx="3" ry="3" style="stroke:#038048;stroke-width:1.0;"/><text fill="#000000" font-family="sans-serif" font-size="14" lengthAdjust="spacing" textLength="222" x="3277" y="935.4082">connectToServiceDiscovery(): TCP</text><ellipse cx="3268" cy="948.7891" fill="#84BE84" rx="3" ry="3" style="stroke:#038048;stroke-width:1.0;"/><text fill="#000000" font-family="sans-serif" font-size="14" lengthAdjust="spacing" textLength="161" x="3277" y="953.0176">connectToAuthDB(): TCP</text></g><!--class WorkflowController--><g id="elem_WorkflowController"><rect codeLine="125" fill="#F1F1F1" height="206.4844" id="WorkflowController" rx="2.5" ry="2.5" style="stroke:#181818;stroke-width:0.5;" width="293" x="2067" y="745"/><ellipse cx="2149.75" cy="761" fill="#ADD1B2" rx="11" ry="11" style="stroke:#181818;stroke-width:1.0;"/><path d="M2152.5156,756.875 Q2152.6719,756.6563 2152.8594,756.5469 Q2153.0469,756.4375 2153.2656,756.4375 Q2153.6406,756.4375 2153.875,756.7031 Q2154.1094,756.9531 2154.1094,757.5625 L2154.1094,759.0156 Q2154.1094,759.625 2153.875,759.8906 Q2153.6406,760.1563 2153.2656,760.1563 Q2152.9219,760.1563 2152.7188,759.9531 Q2152.5156,759.7656 2152.4063,759.25 Q2152.3594,758.8906 2152.1719,758.7031 Q2151.8438,758.3281 2151.2344,758.1094 Q2150.625,757.8906 2150,757.8906 Q2149.2344,757.8906 2148.5938,758.2188 Q2147.9688,758.5469 2147.4688,759.2969 Q2146.9844,760.0469 2146.9844,761.0781 L2146.9844,762.1719 Q2146.9844,763.4063 2147.875,764.2344 Q2148.7656,765.0469 2150.3594,765.0469 Q2151.2969,765.0469 2151.9531,764.7969 Q2152.3438,764.6406 2152.7656,764.2031 Q2153.0313,763.9375 2153.1719,763.8594 Q2153.3281,763.7813 2153.5313,763.7813 Q2153.8594,763.7813 2154.1094,764.0469 Q2154.375,764.2969 2154.375,764.6406 Q2154.375,764.9844 2154.0313,765.3906 Q2153.5313,765.9688 2152.7344,766.2969 Q2151.6563,766.75 2150.3594,766.75 Q2148.8438,766.75 2147.6406,766.125 Q2146.6563,765.625 2145.9688,764.5625 Q2145.2813,763.4844 2145.2813,762.2031 L2145.2813,761.0469 Q2145.2813,759.7188 2145.8906,758.5781 Q2146.5156,757.4219 2147.6094,756.8125 Q2148.7031,756.1875 2149.9375,756.1875 Q2150.6719,756.1875 2151.3125,756.3594 Q2151.9688,756.5156 2152.5156,756.875 Z " fill="#000000"/><text fill="#000000" font-family="sans-serif" font-size="14" lengthAdjust="spacing" textLength="119" x="2170.25" y="766.7285">WorkflowController</text><line style="stroke:#181818;stroke-width:0.5;" x1="2068" x2="2359" y1="777" y2="777"/><rect fill="none" height="6" style="stroke:#C82930;stroke-width:1.0;" width="6" x="2075" y="788.3047"/><text fill="#000000" font-family="sans-serif" font-size="14" lengthAdjust="spacing" textLength="143" x="2087" y="795.5332">framework: SpringWeb</text><rect fill="none" height="6" style="stroke:#C82930;stroke-width:1.0;" width="6" x="2075" y="805.9141"/><text fill="#000000" font-family="sans-serif" font-size="14" lengthAdjust="spacing" textLength="239" x="2087" y="813.1426">instanceType: ARM_And_Preemptible</text><line style="stroke:#181818;stroke-width:0.5;" x1="2068" x2="2359" y1="820.2188" y2="820.2188"/><ellipse cx="2078" cy="834.5234" fill="#84BE84" rx="3" ry="3" style="stroke:#038048;stroke-width:1.0;"/><text fill="#000000" font-family="sans-serif" font-size="14" lengthAdjust="spacing" textLength="86" x="2087" y="838.752">logging(): null</text><ellipse cx="2078" cy="852.1328" fill="#84BE84" rx="3" ry="3" style="stroke:#038048;stroke-width:1.0;"/><text fill="#000000" font-family="sans-serif" font-size="14" lengthAdjust="spacing" textLength="265" x="2087" y="856.3613">sendCreateWorkflowToRabbitMQ(): HTTP</text><ellipse cx="2078" cy="869.7422" fill="#84BE84" rx="3" ry="3" style="stroke:#038048;stroke-width:1.0;"/><text fill="#000000" font-family="sans-serif" font-size="14" lengthAdjust="spacing" textLength="250" x="2087" y="873.9707">sendDeleteorkflowToRabbitMQ(): HTTP</text><ellipse cx="2078" cy="887.3516" fill="#84BE84" rx="3" ry="3" style="stroke:#038048;stroke-width:1.0;"/><text fill="#000000" font-family="sans-serif" font-size="14" lengthAdjust="spacing" textLength="267" x="2087" y="891.5801">sendUpdateWorkflowToRabbitMQ(): HTTP</text><ellipse cx="2078" cy="904.9609" fill="#84BE84" rx="3" ry="3" style="stroke:#038048;stroke-width:1.0;"/><text fill="#000000" font-family="sans-serif" font-size="14" lengthAdjust="spacing" textLength="263" x="2087" y="909.1895">sendDeleteWorkflowToRabbitMQ(): HTTP</text><ellipse cx="2078" cy="922.5703" fill="#84BE84" rx="3" ry="3" style="stroke:#038048;stroke-width:1.0;"/><text fill="#000000" font-family="sans-serif" font-size="14" lengthAdjust="spacing" textLength="222" x="2087" y="926.7988">connectToServiceDiscovery(): TCP</text><ellipse cx="2078" cy="940.1797" fill="#84BE84" rx="3" ry="3" style="stroke:#038048;stroke-width:1.0;"/><text fill="#000000" font-family="sans-serif" font-size="14" lengthAdjust="spacing" textLength="189" x="2087" y="944.4082">connectToWorkflowDB(): TCP</text></g><g id="elem_GMN19"><path d="M1909.5,1092.5 L1909.5,1118.8516 A0,0 0 0 0 1909.5,1118.8516 L2181.5,1118.8516 A0,0 0 0 0 2181.5,1118.8516 L2181.5,1102.5 L2171.5,1092.5 L2057.62,1092.5 L2146.38,951.08 L2049.62,1092.5 L1909.5,1092.5 A0,0 0 0 0 1909.5,1092.5 " fill="#FEFFDD" style="stroke:#181818;stroke-width:0.5;"/><path d="M2171.5,1092.5 L2171.5,1102.5 L2181.5,1102.5 L2171.5,1092.5 " fill="#FEFFDD" style="stroke:#181818;stroke-width:0.5;"/><text fill="#000000" font-family="sans-serif" font-size="13" lengthAdjust="spacing" textLength="251" x="1915.5" y="1110.9951">Controls creating and monitoring workflows.</text></g><!--class PreemptibleCreator--><g id="elem_PreemptibleCreator"><rect codeLine="145" fill="#F1F1F1" height="188.875" id="PreemptibleCreator" rx="2.5" ry="2.5" style="stroke:#181818;stroke-width:0.5;" width="246" x="2048.5" y="7"/><ellipse cx="2105.75" cy="23" fill="#ADD1B2" rx="11" ry="11" style="stroke:#181818;stroke-width:1.0;"/><path d="M2108.5156,18.875 Q2108.6719,18.6563 2108.8594,18.5469 Q2109.0469,18.4375 2109.2656,18.4375 Q2109.6406,18.4375 2109.875,18.7031 Q2110.1094,18.9531 2110.1094,19.5625 L2110.1094,21.0156 Q2110.1094,21.625 2109.875,21.8906 Q2109.6406,22.1563 2109.2656,22.1563 Q2108.9219,22.1563 2108.7188,21.9531 Q2108.5156,21.7656 2108.4063,21.25 Q2108.3594,20.8906 2108.1719,20.7031 Q2107.8438,20.3281 2107.2344,20.1094 Q2106.625,19.8906 2106,19.8906 Q2105.2344,19.8906 2104.5938,20.2188 Q2103.9688,20.5469 2103.4688,21.2969 Q2102.9844,22.0469 2102.9844,23.0781 L2102.9844,24.1719 Q2102.9844,25.4063 2103.875,26.2344 Q2104.7656,27.0469 2106.3594,27.0469 Q2107.2969,27.0469 2107.9531,26.7969 Q2108.3438,26.6406 2108.7656,26.2031 Q2109.0313,25.9375 2109.1719,25.8594 Q2109.3281,25.7813 2109.5313,25.7813 Q2109.8594,25.7813 2110.1094,26.0469 Q2110.375,26.2969 2110.375,26.6406 Q2110.375,26.9844 2110.0313,27.3906 Q2109.5313,27.9688 2108.7344,28.2969 Q2107.6563,28.75 2106.3594,28.75 Q2104.8438,28.75 2103.6406,28.125 Q2102.6563,27.625 2101.9688,26.5625 Q2101.2813,25.4844 2101.2813,24.2031 L2101.2813,23.0469 Q2101.2813,21.7188 2101.8906,20.5781 Q2102.5156,19.4219 2103.6094,18.8125 Q2104.7031,18.1875 2105.9375,18.1875 Q2106.6719,18.1875 2107.3125,18.3594 Q2107.9688,18.5156 2108.5156,18.875 Z " fill="#000000"/><text fill="#000000" font-family="sans-serif" font-size="14" lengthAdjust="spacing" textLength="123" x="2126.25" y="28.7285">PreemptibleCreator</text><line style="stroke:#181818;stroke-width:0.5;" x1="2049.5" x2="2293.5" y1="39" y2="39"/><rect fill="none" height="6" style="stroke:#C82930;stroke-width:1.0;" width="6" x="2056.5" y="50.3047"/><text fill="#000000" font-family="sans-serif" font-size="14" lengthAdjust="spacing" textLength="143" x="2068.5" y="57.5332">framework: SpringWeb</text><rect fill="none" height="6" style="stroke:#C82930;stroke-width:1.0;" width="6" x="2056.5" y="67.9141"/><text fill="#000000" font-family="sans-serif" font-size="14" lengthAdjust="spacing" textLength="123" x="2068.5" y="75.1426">instanceType: AMD</text><line style="stroke:#181818;stroke-width:0.5;" x1="2049.5" x2="2293.5" y1="82.2188" y2="82.2188"/><ellipse cx="2059.5" cy="96.5234" fill="#84BE84" rx="3" ry="3" style="stroke:#038048;stroke-width:1.0;"/><text fill="#000000" font-family="sans-serif" font-size="14" lengthAdjust="spacing" textLength="86" x="2068.5" y="100.752">logging(): null</text><ellipse cx="2059.5" cy="114.1328" fill="#84BE84" rx="3" ry="3" style="stroke:#038048;stroke-width:1.0;"/><text fill="#000000" font-family="sans-serif" font-size="14" lengthAdjust="spacing" textLength="220" x="2068.5" y="118.3613">consumeFromPrometheus(): HTTP</text><ellipse cx="2059.5" cy="131.7422" fill="#84BE84" rx="3" ry="3" style="stroke:#038048;stroke-width:1.0;"/><text fill="#000000" font-family="sans-serif" font-size="14" lengthAdjust="spacing" textLength="206" x="2068.5" y="135.9707">monitorRabbitMQQueues(): TCP</text><ellipse cx="2059.5" cy="149.3516" fill="#84BE84" rx="3" ry="3" style="stroke:#038048;stroke-width:1.0;"/><text fill="#000000" font-family="sans-serif" font-size="14" lengthAdjust="spacing" textLength="169" x="2068.5" y="153.5801">createPreemptible(): HTTP</text><ellipse cx="2059.5" cy="166.9609" fill="#84BE84" rx="3" ry="3" style="stroke:#038048;stroke-width:1.0;"/><text fill="#000000" font-family="sans-serif" font-size="14" lengthAdjust="spacing" textLength="183" x="2068.5" y="171.1895">monitorPreemptibles(): HTTP</text><ellipse cx="2059.5" cy="184.5703" fill="#84BE84" rx="3" ry="3" style="stroke:#038048;stroke-width:1.0;"/><text fill="#000000" font-family="sans-serif" font-size="14" lengthAdjust="spacing" textLength="176" x="2068.5" y="188.7988">removePreemptible(): HTTP</text></g><g id="elem_GMN23"><path d="M2329.5,88.5 L2329.5,97.5 L2294.69,101.5 L2329.5,105.5 L2329.5,114.8516 A0,0 0 0 0 2329.5,114.8516 L2597.5,114.8516 A0,0 0 0 0 2597.5,114.8516 L2597.5,98.5 L2587.5,88.5 L2329.5,88.5 A0,0 0 0 0 2329.5,88.5 " fill="#FEFFDD" style="stroke:#181818;stroke-width:0.5;"/><path d="M2587.5,88.5 L2587.5,98.5 L2597.5,98.5 L2587.5,88.5 " fill="#FEFFDD" style="stroke:#181818;stroke-width:0.5;"/><text fill="#000000" font-family="sans-serif" font-size="13" lengthAdjust="spacing" textLength="247" x="2335.5" y="106.9951">Used for creating new capacity on overload</text></g><!--class WorkflowDB--><g id="elem_WorkflowDB"><rect codeLine="164" fill="#F1F1F1" height="136.0469" id="WorkflowDB" rx="2.5" ry="2.5" style="stroke:#181818;stroke-width:0.5;" width="211" x="2553" y="780"/><ellipse cx="2616.25" cy="796" fill="#ADD1B2" rx="11" ry="11" style="stroke:#181818;stroke-width:1.0;"/><path d="M2619.0156,791.875 Q2619.1719,791.6563 2619.3594,791.5469 Q2619.5469,791.4375 2619.7656,791.4375 Q2620.1406,791.4375 2620.375,791.7031 Q2620.6094,791.9531 2620.6094,792.5625 L2620.6094,794.0156 Q2620.6094,794.625 2620.375,794.8906 Q2620.1406,795.1563 2619.7656,795.1563 Q2619.4219,795.1563 2619.2188,794.9531 Q2619.0156,794.7656 2618.9063,794.25 Q2618.8594,793.8906 2618.6719,793.7031 Q2618.3438,793.3281 2617.7344,793.1094 Q2617.125,792.8906 2616.5,792.8906 Q2615.7344,792.8906 2615.0938,793.2188 Q2614.4688,793.5469 2613.9688,794.2969 Q2613.4844,795.0469 2613.4844,796.0781 L2613.4844,797.1719 Q2613.4844,798.4063 2614.375,799.2344 Q2615.2656,800.0469 2616.8594,800.0469 Q2617.7969,800.0469 2618.4531,799.7969 Q2618.8438,799.6406 2619.2656,799.2031 Q2619.5313,798.9375 2619.6719,798.8594 Q2619.8281,798.7813 2620.0313,798.7813 Q2620.3594,798.7813 2620.6094,799.0469 Q2620.875,799.2969 2620.875,799.6406 Q2620.875,799.9844 2620.5313,800.3906 Q2620.0313,800.9688 2619.2344,801.2969 Q2618.1563,801.75 2616.8594,801.75 Q2615.3438,801.75 2614.1406,801.125 Q2613.1563,800.625 2612.4688,799.5625 Q2611.7813,798.4844 2611.7813,797.2031 L2611.7813,796.0469 Q2611.7813,794.7188 2612.3906,793.5781 Q2613.0156,792.4219 2614.1094,791.8125 Q2615.2031,791.1875 2616.4375,791.1875 Q2617.1719,791.1875 2617.8125,791.3594 Q2618.4688,791.5156 2619.0156,791.875 Z " fill="#000000"/><text fill="#000000" font-family="sans-serif" font-size="14" lengthAdjust="spacing" textLength="76" x="2636.75" y="801.7285">WorkflowDB</text><line style="stroke:#181818;stroke-width:0.5;" x1="2554" x2="2763" y1="812" y2="812"/><rect fill="none" height="6" style="stroke:#C82930;stroke-width:1.0;" width="6" x="2561" y="823.3047"/><text fill="#000000" font-family="sans-serif" font-size="14" lengthAdjust="spacing" textLength="178" x="2573" y="830.5332">framework: Oracle_SQL_DB</text><line style="stroke:#181818;stroke-width:0.5;" x1="2554" x2="2763" y1="837.6094" y2="837.6094"/><ellipse cx="2564" cy="851.9141" fill="#84BE84" rx="3" ry="3" style="stroke:#038048;stroke-width:1.0;"/><text fill="#000000" font-family="sans-serif" font-size="14" lengthAdjust="spacing" textLength="177" x="2573" y="856.1426">storeWorkflowsById(): HTTP</text><ellipse cx="2564" cy="869.5234" fill="#84BE84" rx="3" ry="3" style="stroke:#038048;stroke-width:1.0;"/><text fill="#000000" font-family="sans-serif" font-size="14" lengthAdjust="spacing" textLength="162" x="2573" y="873.752">listWorkflowsById(): HTTP</text><ellipse cx="2564" cy="887.1328" fill="#84BE84" rx="3" ry="3" style="stroke:#038048;stroke-width:1.0;"/><text fill="#000000" font-family="sans-serif" font-size="14" lengthAdjust="spacing" textLength="185" x="2573" y="891.3613">removeWorkflowById(): HTTP</text><ellipse cx="2564" cy="904.7422" fill="#84BE84" rx="3" ry="3" style="stroke:#038048;stroke-width:1.0;"/><text fill="#000000" font-family="sans-serif" font-size="14" lengthAdjust="spacing" textLength="182" x="2573" y="908.9707">updateWorkflowById(): HTTP</text></g><g id="elem_GMN27"><path d="M2395,835 L2395,861.3516 A0,0 0 0 0 2395,861.3516 L2518,861.3516 A0,0 0 0 0 2518,861.3516 L2518,853 L2552.89,848 L2518,845 L2518,845 L2508,835 L2395,835 A0,0 0 0 0 2395,835 " fill="#FEFFDD" style="stroke:#181818;stroke-width:0.5;"/><path d="M2508,835 L2508,845 L2518,845 L2508,835 " fill="#FEFFDD" style="stroke:#181818;stroke-width:0.5;"/><text fill="#000000" font-family="sans-serif" font-size="13" lengthAdjust="spacing" textLength="102" x="2401" y="853.4951">Uses AuthDB IDs</text></g><!--class AuthDB--><g id="elem_AuthDB"><rect codeLine="180" fill="#F1F1F1" height="136.0469" id="AuthDB" rx="2.5" ry="2.5" style="stroke:#181818;stroke-width:0.5;" width="204" x="3017.5" y="780"/><ellipse cx="3091.25" cy="796" fill="#ADD1B2" rx="11" ry="11" style="stroke:#181818;stroke-width:1.0;"/><path d="M3094.0156,791.875 Q3094.1719,791.6563 3094.3594,791.5469 Q3094.5469,791.4375 3094.7656,791.4375 Q3095.1406,791.4375 3095.375,791.7031 Q3095.6094,791.9531 3095.6094,792.5625 L3095.6094,794.0156 Q3095.6094,794.625 3095.375,794.8906 Q3095.1406,795.1563 3094.7656,795.1563 Q3094.4219,795.1563 3094.2188,794.9531 Q3094.0156,794.7656 3093.9063,794.25 Q3093.8594,793.8906 3093.6719,793.7031 Q3093.3438,793.3281 3092.7344,793.1094 Q3092.125,792.8906 3091.5,792.8906 Q3090.7344,792.8906 3090.0938,793.2188 Q3089.4688,793.5469 3088.9688,794.2969 Q3088.4844,795.0469 3088.4844,796.0781 L3088.4844,797.1719 Q3088.4844,798.4063 3089.375,799.2344 Q3090.2656,800.0469 3091.8594,800.0469 Q3092.7969,800.0469 3093.4531,799.7969 Q3093.8438,799.6406 3094.2656,799.2031 Q3094.5313,798.9375 3094.6719,798.8594 Q3094.8281,798.7813 3095.0313,798.7813 Q3095.3594,798.7813 3095.6094,799.0469 Q3095.875,799.2969 3095.875,799.6406 Q3095.875,799.9844 3095.5313,800.3906 Q3095.0313,800.9688 3094.2344,801.2969 Q3093.1563,801.75 3091.8594,801.75 Q3090.3438,801.75 3089.1406,801.125 Q3088.1563,800.625 3087.4688,799.5625 Q3086.7813,798.4844 3086.7813,797.2031 L3086.7813,796.0469 Q3086.7813,794.7188 3087.3906,793.5781 Q3088.0156,792.4219 3089.1094,791.8125 Q3090.2031,791.1875 3091.4375,791.1875 Q3092.1719,791.1875 3092.8125,791.3594 Q3093.4688,791.5156 3094.0156,791.875 Z " fill="#000000"/><text fill="#000000" font-family="sans-serif" font-size="14" lengthAdjust="spacing" textLength="48" x="3111.75" y="801.7285">AuthDB</text><line style="stroke:#181818;stroke-width:0.5;" x1="3018.5" x2="3220.5" y1="812" y2="812"/><rect fill="none" height="6" style="stroke:#C82930;stroke-width:1.0;" width="6" x="3025.5" y="823.3047"/><text fill="#000000" font-family="sans-serif" font-size="14" lengthAdjust="spacing" textLength="178" x="3037.5" y="830.5332">framework: Oracle_SQL_DB</text><line style="stroke:#181818;stroke-width:0.5;" x1="3018.5" x2="3220.5" y1="837.6094" y2="837.6094"/><ellipse cx="3028.5" cy="851.9141" fill="#84BE84" rx="3" ry="3" style="stroke:#038048;stroke-width:1.0;"/><text fill="#000000" font-family="sans-serif" font-size="14" lengthAdjust="spacing" textLength="115" x="3037.5" y="856.1426">storeUser(): HTTP</text><ellipse cx="3028.5" cy="869.5234" fill="#84BE84" rx="3" ry="3" style="stroke:#038048;stroke-width:1.0;"/><text fill="#000000" font-family="sans-serif" font-size="14" lengthAdjust="spacing" textLength="103" x="3037.5" y="873.752">getUser(): HTTP</text><ellipse cx="3028.5" cy="887.1328" fill="#84BE84" rx="3" ry="3" style="stroke:#038048;stroke-width:1.0;"/><text fill="#000000" font-family="sans-serif" font-size="14" lengthAdjust="spacing" textLength="127" x="3037.5" y="891.3613">updateUser(): HTTP</text><ellipse cx="3028.5" cy="904.7422" fill="#84BE84" rx="3" ry="3" style="stroke:#038048;stroke-width:1.0;"/><text fill="#000000" font-family="sans-serif" font-size="14" lengthAdjust="spacing" textLength="130" x="3037.5" y="908.9707">removeUser(): HTTP</text></g><g id="elem_GMN31"><path d="M2871,835 L2871,861.3516 A0,0 0 0 0 2871,861.3516 L2982,861.3516 A0,0 0 0 0 2982,861.3516 L2982,853 L3017.4,848 L2982,845 L2982,845 L2972,835 L2871,835 A0,0 0 0 0 2871,835 " fill="#FEFFDD" style="stroke:#181818;stroke-width:0.5;"/><path d="M2972,835 L2972,845 L2982,845 L2972,835 " fill="#FEFFDD" style="stroke:#181818;stroke-width:0.5;"/><text fill="#000000" font-family="sans-serif" font-size="13" lengthAdjust="spacing" textLength="90" x="2877" y="853.4951">Returns user ID</text></g><!--class RabbitMQ--><g id="elem_RabbitMQ"><rect codeLine="196" fill="#F1F1F1" height="153.6563" id="RabbitMQ" rx="2.5" ry="2.5" style="stroke:#181818;stroke-width:0.5;" width="233" x="1499" y="504.5"/><ellipse cx="1579.75" cy="520.5" fill="#ADD1B2" rx="11" ry="11" style="stroke:#181818;stroke-width:1.0;"/><path d="M1582.5156,516.375 Q1582.6719,516.1563 1582.8594,516.0469 Q1583.0469,515.9375 1583.2656,515.9375 Q1583.6406,515.9375 1583.875,516.2031 Q1584.1094,516.4531 1584.1094,517.0625 L1584.1094,518.5156 Q1584.1094,519.125 1583.875,519.3906 Q1583.6406,519.6563 1583.2656,519.6563 Q1582.9219,519.6563 1582.7188,519.4531 Q1582.5156,519.2656 1582.4063,518.75 Q1582.3594,518.3906 1582.1719,518.2031 Q1581.8438,517.8281 1581.2344,517.6094 Q1580.625,517.3906 1580,517.3906 Q1579.2344,517.3906 1578.5938,517.7188 Q1577.9688,518.0469 1577.4688,518.7969 Q1576.9844,519.5469 1576.9844,520.5781 L1576.9844,521.6719 Q1576.9844,522.9063 1577.875,523.7344 Q1578.7656,524.5469 1580.3594,524.5469 Q1581.2969,524.5469 1581.9531,524.2969 Q1582.3438,524.1406 1582.7656,523.7031 Q1583.0313,523.4375 1583.1719,523.3594 Q1583.3281,523.2813 1583.5313,523.2813 Q1583.8594,523.2813 1584.1094,523.5469 Q1584.375,523.7969 1584.375,524.1406 Q1584.375,524.4844 1584.0313,524.8906 Q1583.5313,525.4688 1582.7344,525.7969 Q1581.6563,526.25 1580.3594,526.25 Q1578.8438,526.25 1577.6406,525.625 Q1576.6563,525.125 1575.9688,524.0625 Q1575.2813,522.9844 1575.2813,521.7031 L1575.2813,520.5469 Q1575.2813,519.2188 1575.8906,518.0781 Q1576.5156,516.9219 1577.6094,516.3125 Q1578.7031,515.6875 1579.9375,515.6875 Q1580.6719,515.6875 1581.3125,515.8594 Q1581.9688,516.0156 1582.5156,516.375 Z " fill="#000000"/><text fill="#000000" font-family="sans-serif" font-size="14" lengthAdjust="spacing" textLength="63" x="1600.25" y="526.2285">RabbitMQ</text><line style="stroke:#181818;stroke-width:0.5;" x1="1500" x2="1731" y1="536.5" y2="536.5"/><rect fill="none" height="6" style="stroke:#C82930;stroke-width:1.0;" width="6" x="1507" y="547.8047"/><text fill="#000000" font-family="sans-serif" font-size="14" lengthAdjust="spacing" textLength="123" x="1519" y="555.0332">instanceType: ARM</text><line style="stroke:#181818;stroke-width:0.5;" x1="1500" x2="1731" y1="562.1094" y2="562.1094"/><ellipse cx="1510" cy="576.4141" fill="#84BE84" rx="3" ry="3" style="stroke:#038048;stroke-width:1.0;"/><text fill="#000000" font-family="sans-serif" font-size="14" lengthAdjust="spacing" textLength="207" x="1519" y="580.6426">workflowWorkerExchange(): TCP</text><ellipse cx="1510" cy="594.0234" fill="#84BE84" rx="3" ry="3" style="stroke:#038048;stroke-width:1.0;"/><text fill="#000000" font-family="sans-serif" font-size="14" lengthAdjust="spacing" textLength="200" x="1519" y="598.252">discordWorkerExchange(): TCP</text><ellipse cx="1510" cy="611.6328" fill="#84BE84" rx="3" ry="3" style="stroke:#038048;stroke-width:1.0;"/><text fill="#000000" font-family="sans-serif" font-size="14" lengthAdjust="spacing" textLength="195" x="1519" y="615.8613">pollingWorkerExchange(): TCP</text><ellipse cx="1510" cy="629.2422" fill="#84BE84" rx="3" ry="3" style="stroke:#038048;stroke-width:1.0;"/><text fill="#000000" font-family="sans-serif" font-size="14" lengthAdjust="spacing" textLength="186" x="1519" y="633.4707">slackWorkerExchange(): TCP</text><ellipse cx="1510" cy="646.8516" fill="#84BE84" rx="3" ry="3" style="stroke:#038048;stroke-width:1.0;"/><text fill="#000000" font-family="sans-serif" font-size="14" lengthAdjust="spacing" textLength="187" x="1519" y="651.0801">emailWorkerExchange(): TCP</text></g><g id="elem_GMN35"><path d="M1077,568.5 L1077,594.8516 A0,0 0 0 0 1077,594.8516 L1464,594.8516 A0,0 0 0 0 1464,594.8516 L1464,586.5 L1498.79,581.5 L1464,578.5 L1464,578.5 L1454,568.5 L1077,568.5 A0,0 0 0 0 1077,568.5 " fill="#FEFFDD" style="stroke:#181818;stroke-width:0.5;"/><path d="M1454,568.5 L1454,578.5 L1464,578.5 L1454,568.5 " fill="#FEFFDD" style="stroke:#181818;stroke-width:0.5;"/><text fill="#000000" font-family="sans-serif" font-size="13" lengthAdjust="spacing" textLength="366" x="1083" y="586.9951">Chosen instead of Kafka because of its small memory footprint.</text></g><!--class NewEventWorker--><g id="elem_NewEventWorker"><rect codeLine="213" fill="#F1F1F1" height="153.6563" id="NewEventWorker" rx="2.5" ry="2.5" style="stroke:#181818;stroke-width:0.5;" width="265" x="1633" y="264.5"/><ellipse cx="1707.25" cy="280.5" fill="#ADD1B2" rx="11" ry="11" style="stroke:#181818;stroke-width:1.0;"/><path d="M1710.0156,276.375 Q1710.1719,276.1563 1710.3594,276.0469 Q1710.5469,275.9375 1710.7656,275.9375 Q1711.1406,275.9375 1711.375,276.2031 Q1711.6094,276.4531 1711.6094,277.0625 L1711.6094,278.5156 Q1711.6094,279.125 1711.375,279.3906 Q1711.1406,279.6563 1710.7656,279.6563 Q1710.4219,279.6563 1710.2188,279.4531 Q1710.0156,279.2656 1709.9063,278.75 Q1709.8594,278.3906 1709.6719,278.2031 Q1709.3438,277.8281 1708.7344,277.6094 Q1708.125,277.3906 1707.5,277.3906 Q1706.7344,277.3906 1706.0938,277.7188 Q1705.4688,278.0469 1704.9688,278.7969 Q1704.4844,279.5469 1704.4844,280.5781 L1704.4844,281.6719 Q1704.4844,282.9063 1705.375,283.7344 Q1706.2656,284.5469 1707.8594,284.5469 Q1708.7969,284.5469 1709.4531,284.2969 Q1709.8438,284.1406 1710.2656,283.7031 Q1710.5313,283.4375 1710.6719,283.3594 Q1710.8281,283.2813 1711.0313,283.2813 Q1711.3594,283.2813 1711.6094,283.5469 Q1711.875,283.7969 1711.875,284.1406 Q1711.875,284.4844 1711.5313,284.8906 Q1711.0313,285.4688 1710.2344,285.7969 Q1709.1563,286.25 1707.8594,286.25 Q1706.3438,286.25 1705.1406,285.625 Q1704.1563,285.125 1703.4688,284.0625 Q1702.7813,282.9844 1702.7813,281.7031 L1702.7813,280.5469 Q1702.7813,279.2188 1703.3906,278.0781 Q1704.0156,276.9219 1705.1094,276.3125 Q1706.2031,275.6875 1707.4375,275.6875 Q1708.1719,275.6875 1708.8125,275.8594 Q1709.4688,276.0156 1710.0156,276.375 Z " fill="#000000"/><text fill="#000000" font-family="sans-serif" font-size="14" lengthAdjust="spacing" textLength="108" x="1727.75" y="286.2285">NewEventWorker</text><line style="stroke:#181818;stroke-width:0.5;" x1="1634" x2="1897" y1="296.5" y2="296.5"/><rect fill="none" height="6" style="stroke:#C82930;stroke-width:1.0;" width="6" x="1641" y="307.8047"/><text fill="#000000" font-family="sans-serif" font-size="14" lengthAdjust="spacing" textLength="143" x="1653" y="315.0332">framework: SpringWeb</text><rect fill="none" height="6" style="stroke:#C82930;stroke-width:1.0;" width="6" x="1641" y="325.4141"/><text fill="#000000" font-family="sans-serif" font-size="14" lengthAdjust="spacing" textLength="239" x="1653" y="332.6426">instanceType: ARM_And_Preemptible</text><line style="stroke:#181818;stroke-width:0.5;" x1="1634" x2="1897" y1="339.7188" y2="339.7188"/><ellipse cx="1644" cy="354.0234" fill="#84BE84" rx="3" ry="3" style="stroke:#038048;stroke-width:1.0;"/><text fill="#000000" font-family="sans-serif" font-size="14" lengthAdjust="spacing" textLength="231" x="1653" y="358.252">getNewEventsFromRabbitMQ(): TCP</text><ellipse cx="1644" cy="371.6328" fill="#84BE84" rx="3" ry="3" style="stroke:#038048;stroke-width:1.0;"/><text fill="#000000" font-family="sans-serif" font-size="14" lengthAdjust="spacing" textLength="225" x="1653" y="375.8613">createMessageOnRabbitMQ(): TCP</text><ellipse cx="1644" cy="389.2422" fill="#84BE84" rx="3" ry="3" style="stroke:#038048;stroke-width:1.0;"/><text fill="#000000" font-family="sans-serif" font-size="14" lengthAdjust="spacing" textLength="185" x="1653" y="393.4707">checkInMemoryCache(): TCP</text><ellipse cx="1644" cy="406.8516" fill="#84BE84" rx="3" ry="3" style="stroke:#038048;stroke-width:1.0;"/><text fill="#000000" font-family="sans-serif" font-size="14" lengthAdjust="spacing" textLength="125" x="1653" y="411.0801">emitMetrics(): HTTP</text></g><g id="elem_GMN39"><path d="M1586,88.5 L1586,114.8516 A0,0 0 0 0 1586,114.8516 L1793.77,114.8516 L1776.39,264.3 L1801.77,114.8516 L2013,114.8516 A0,0 0 0 0 2013,114.8516 L2013,98.5 L2003,88.5 L1586,88.5 A0,0 0 0 0 1586,88.5 " fill="#FEFFDD" style="stroke:#181818;stroke-width:0.5;"/><path d="M2003,88.5 L2003,98.5 L2013,98.5 L2003,88.5 " fill="#FEFFDD" style="stroke:#181818;stroke-width:0.5;"/><text fill="#000000" font-family="sans-serif" font-size="13" lengthAdjust="spacing" textLength="406" x="1592" y="106.9951">Creates new tasks for other workers. Consumes messages from polls.</text></g><!--class DiscordWorker--><g id="elem_DiscordWorker"><rect codeLine="230" fill="#F1F1F1" height="153.6563" id="DiscordWorker" rx="2.5" ry="2.5" style="stroke:#181818;stroke-width:0.5;" width="265" x="1333" y="264.5"/><ellipse cx="1414.25" cy="280.5" fill="#ADD1B2" rx="11" ry="11" style="stroke:#181818;stroke-width:1.0;"/><path d="M1417.0156,276.375 Q1417.1719,276.1563 1417.3594,276.0469 Q1417.5469,275.9375 1417.7656,275.9375 Q1418.1406,275.9375 1418.375,276.2031 Q1418.6094,276.4531 1418.6094,277.0625 L1418.6094,278.5156 Q1418.6094,279.125 1418.375,279.3906 Q1418.1406,279.6563 1417.7656,279.6563 Q1417.4219,279.6563 1417.2188,279.4531 Q1417.0156,279.2656 1416.9063,278.75 Q1416.8594,278.3906 1416.6719,278.2031 Q1416.3438,277.8281 1415.7344,277.6094 Q1415.125,277.3906 1414.5,277.3906 Q1413.7344,277.3906 1413.0938,277.7188 Q1412.4688,278.0469 1411.9688,278.7969 Q1411.4844,279.5469 1411.4844,280.5781 L1411.4844,281.6719 Q1411.4844,282.9063 1412.375,283.7344 Q1413.2656,284.5469 1414.8594,284.5469 Q1415.7969,284.5469 1416.4531,284.2969 Q1416.8438,284.1406 1417.2656,283.7031 Q1417.5313,283.4375 1417.6719,283.3594 Q1417.8281,283.2813 1418.0313,283.2813 Q1418.3594,283.2813 1418.6094,283.5469 Q1418.875,283.7969 1418.875,284.1406 Q1418.875,284.4844 1418.5313,284.8906 Q1418.0313,285.4688 1417.2344,285.7969 Q1416.1563,286.25 1414.8594,286.25 Q1413.3438,286.25 1412.1406,285.625 Q1411.1563,285.125 1410.4688,284.0625 Q1409.7813,282.9844 1409.7813,281.7031 L1409.7813,280.5469 Q1409.7813,279.2188 1410.3906,278.0781 Q1411.0156,276.9219 1412.1094,276.3125 Q1413.2031,275.6875 1414.4375,275.6875 Q1415.1719,275.6875 1415.8125,275.8594 Q1416.4688,276.0156 1417.0156,276.375 Z " fill="#000000"/><text fill="#000000" font-family="sans-serif" font-size="14" lengthAdjust="spacing" textLength="94" x="1434.75" y="286.2285">DiscordWorker</text><line style="stroke:#181818;stroke-width:0.5;" x1="1334" x2="1597" y1="296.5" y2="296.5"/><rect fill="none" height="6" style="stroke:#C82930;stroke-width:1.0;" width="6" x="1341" y="307.8047"/><text fill="#000000" font-family="sans-serif" font-size="14" lengthAdjust="spacing" textLength="143" x="1353" y="315.0332">framework: SpringWeb</text><rect fill="none" height="6" style="stroke:#C82930;stroke-width:1.0;" width="6" x="1341" y="325.4141"/><text fill="#000000" font-family="sans-serif" font-size="14" lengthAdjust="spacing" textLength="239" x="1353" y="332.6426">instanceType: ARM_And_Preemptible</text><line style="stroke:#181818;stroke-width:0.5;" x1="1334" x2="1597" y1="339.7188" y2="339.7188"/><ellipse cx="1344" cy="354.0234" fill="#84BE84" rx="3" ry="3" style="stroke:#038048;stroke-width:1.0;"/><text fill="#000000" font-family="sans-serif" font-size="14" lengthAdjust="spacing" textLength="200" x="1353" y="358.252">getTasksFromRabbitMQ(): TCP</text><ellipse cx="1344" cy="371.6328" fill="#84BE84" rx="3" ry="3" style="stroke:#038048;stroke-width:1.0;"/><text fill="#000000" font-family="sans-serif" font-size="14" lengthAdjust="spacing" textLength="182" x="1353" y="375.8613">executeDiscordTask(): HTTP</text><ellipse cx="1344" cy="389.2422" fill="#84BE84" rx="3" ry="3" style="stroke:#038048;stroke-width:1.0;"/><text fill="#000000" font-family="sans-serif" font-size="14" lengthAdjust="spacing" textLength="185" x="1353" y="393.4707">checkInMemoryCache(): TCP</text><ellipse cx="1344" cy="406.8516" fill="#84BE84" rx="3" ry="3" style="stroke:#038048;stroke-width:1.0;"/><text fill="#000000" font-family="sans-serif" font-size="14" lengthAdjust="spacing" textLength="125" x="1353" y="411.0801">emitMetrics(): HTTP</text></g><g id="elem_GMN43"><path d="M1344,88.5 L1344,114.8516 A0,0 0 0 0 1344,114.8516 L1444.42,114.8516 L1459.74,264.3 L1452.42,114.8516 L1551,114.8516 A0,0 0 0 0 1551,114.8516 L1551,98.5 L1541,88.5 L1344,88.5 A0,0 0 0 0 1344,88.5 " fill="#FEFFDD" style="stroke:#181818;stroke-width:0.5;"/><path d="M1541,88.5 L1541,98.5 L1551,98.5 L1541,88.5 " fill="#FEFFDD" style="stroke:#181818;stroke-width:0.5;"/><text fill="#000000" font-family="sans-serif" font-size="13" lengthAdjust="spacing" textLength="186" x="1350" y="106.9951">Executes Discord-related tasks.</text></g><!--class PollingWorker--><g id="elem_PollingWorker"><rect codeLine="247" fill="#F1F1F1" height="171.2656" id="PollingWorker" rx="2.5" ry="2.5" style="stroke:#181818;stroke-width:0.5;" width="265" x="733" y="256"/><ellipse cx="817.25" cy="272" fill="#ADD1B2" rx="11" ry="11" style="stroke:#181818;stroke-width:1.0;"/><path d="M820.0156,267.875 Q820.1719,267.6563 820.3594,267.5469 Q820.5469,267.4375 820.7656,267.4375 Q821.1406,267.4375 821.375,267.7031 Q821.6094,267.9531 821.6094,268.5625 L821.6094,270.0156 Q821.6094,270.625 821.375,270.8906 Q821.1406,271.1563 820.7656,271.1563 Q820.4219,271.1563 820.2188,270.9531 Q820.0156,270.7656 819.9063,270.25 Q819.8594,269.8906 819.6719,269.7031 Q819.3438,269.3281 818.7344,269.1094 Q818.125,268.8906 817.5,268.8906 Q816.7344,268.8906 816.0938,269.2188 Q815.4688,269.5469 814.9688,270.2969 Q814.4844,271.0469 814.4844,272.0781 L814.4844,273.1719 Q814.4844,274.4063 815.375,275.2344 Q816.2656,276.0469 817.8594,276.0469 Q818.7969,276.0469 819.4531,275.7969 Q819.8438,275.6406 820.2656,275.2031 Q820.5313,274.9375 820.6719,274.8594 Q820.8281,274.7813 821.0313,274.7813 Q821.3594,274.7813 821.6094,275.0469 Q821.875,275.2969 821.875,275.6406 Q821.875,275.9844 821.5313,276.3906 Q821.0313,276.9688 820.2344,277.2969 Q819.1563,277.75 817.8594,277.75 Q816.3438,277.75 815.1406,277.125 Q814.1563,276.625 813.4688,275.5625 Q812.7813,274.4844 812.7813,273.2031 L812.7813,272.0469 Q812.7813,270.7188 813.3906,269.5781 Q814.0156,268.4219 815.1094,267.8125 Q816.2031,267.1875 817.4375,267.1875 Q818.1719,267.1875 818.8125,267.3594 Q819.4688,267.5156 820.0156,267.875 Z " fill="#000000"/><text fill="#000000" font-family="sans-serif" font-size="14" lengthAdjust="spacing" textLength="88" x="837.75" y="277.7285">PollingWorker</text><line style="stroke:#181818;stroke-width:0.5;" x1="734" x2="997" y1="288" y2="288"/><rect fill="none" height="6" style="stroke:#C82930;stroke-width:1.0;" width="6" x="741" y="299.3047"/><text fill="#000000" font-family="sans-serif" font-size="14" lengthAdjust="spacing" textLength="150" x="753" y="306.5332">framework: SpringBatch</text><rect fill="none" height="6" style="stroke:#C82930;stroke-width:1.0;" width="6" x="741" y="316.9141"/><text fill="#000000" font-family="sans-serif" font-size="14" lengthAdjust="spacing" textLength="239" x="753" y="324.1426">instanceType: ARM_And_Preemptible</text><line style="stroke:#181818;stroke-width:0.5;" x1="734" x2="997" y1="331.2188" y2="331.2188"/><ellipse cx="744" cy="345.5234" fill="#84BE84" rx="3" ry="3" style="stroke:#038048;stroke-width:1.0;"/><text fill="#000000" font-family="sans-serif" font-size="14" lengthAdjust="spacing" textLength="211" x="753" y="349.752">getTargetsFromRabbitMQ(): TCP</text><ellipse cx="744" cy="363.1328" fill="#84BE84" rx="3" ry="3" style="stroke:#038048;stroke-width:1.0;"/><text fill="#000000" font-family="sans-serif" font-size="14" lengthAdjust="spacing" textLength="161" x="753" y="367.3613">batchPollTargets(): HTTP</text><ellipse cx="744" cy="380.7422" fill="#84BE84" rx="3" ry="3" style="stroke:#038048;stroke-width:1.0;"/><text fill="#000000" font-family="sans-serif" font-size="14" lengthAdjust="spacing" textLength="185" x="753" y="384.9707">checkInMemoryCache(): TCP</text><ellipse cx="744" cy="398.3516" fill="#84BE84" rx="3" ry="3" style="stroke:#038048;stroke-width:1.0;"/><text fill="#000000" font-family="sans-serif" font-size="14" lengthAdjust="spacing" textLength="225" x="753" y="402.5801">createMessageOnRabbitMQ(): TCP</text><ellipse cx="744" cy="415.9609" fill="#84BE84" rx="3" ry="3" style="stroke:#038048;stroke-width:1.0;"/><text fill="#000000" font-family="sans-serif" font-size="14" lengthAdjust="spacing" textLength="125" x="753" y="420.1895">emitMetrics(): HTTP</text></g><g id="elem_GMN47"><path d="M6,88.5 L6,114.8516 L251,114.8516 L251,98.5 L241,88.5 L6,88.5 " fill="#FEFFDD" style="stroke:#181818;stroke-width:0.5;"/><path d="M241,88.5 L241,98.5 L251,98.5 L241,88.5 " fill="#FEFFDD" style="stroke:#181818;stroke-width:1.0;"/><text fill="#000000" font-family="sans-serif" font-size="13" lengthAdjust="spacing" textLength="224" x="12" y="106.9951">Does batch polls on numerous targets.</text></g><!--class SlackWorker--><g id="elem_SlackWorker"><rect codeLine="265" fill="#F1F1F1" height="153.6563" id="SlackWorker" rx="2.5" ry="2.5" style="stroke:#181818;stroke-width:0.5;" width="265" x="1033" y="264.5"/><ellipse cx="1121.25" cy="280.5" fill="#ADD1B2" rx="11" ry="11" style="stroke:#181818;stroke-width:1.0;"/><path d="M1124.0156,276.375 Q1124.1719,276.1563 1124.3594,276.0469 Q1124.5469,275.9375 1124.7656,275.9375 Q1125.1406,275.9375 1125.375,276.2031 Q1125.6094,276.4531 1125.6094,277.0625 L1125.6094,278.5156 Q1125.6094,279.125 1125.375,279.3906 Q1125.1406,279.6563 1124.7656,279.6563 Q1124.4219,279.6563 1124.2188,279.4531 Q1124.0156,279.2656 1123.9063,278.75 Q1123.8594,278.3906 1123.6719,278.2031 Q1123.3438,277.8281 1122.7344,277.6094 Q1122.125,277.3906 1121.5,277.3906 Q1120.7344,277.3906 1120.0938,277.7188 Q1119.4688,278.0469 1118.9688,278.7969 Q1118.4844,279.5469 1118.4844,280.5781 L1118.4844,281.6719 Q1118.4844,282.9063 1119.375,283.7344 Q1120.2656,284.5469 1121.8594,284.5469 Q1122.7969,284.5469 1123.4531,284.2969 Q1123.8438,284.1406 1124.2656,283.7031 Q1124.5313,283.4375 1124.6719,283.3594 Q1124.8281,283.2813 1125.0313,283.2813 Q1125.3594,283.2813 1125.6094,283.5469 Q1125.875,283.7969 1125.875,284.1406 Q1125.875,284.4844 1125.5313,284.8906 Q1125.0313,285.4688 1124.2344,285.7969 Q1123.1563,286.25 1121.8594,286.25 Q1120.3438,286.25 1119.1406,285.625 Q1118.1563,285.125 1117.4688,284.0625 Q1116.7813,282.9844 1116.7813,281.7031 L1116.7813,280.5469 Q1116.7813,279.2188 1117.3906,278.0781 Q1118.0156,276.9219 1119.1094,276.3125 Q1120.2031,275.6875 1121.4375,275.6875 Q1122.1719,275.6875 1122.8125,275.8594 Q1123.4688,276.0156 1124.0156,276.375 Z " fill="#000000"/><text fill="#000000" font-family="sans-serif" font-size="14" lengthAdjust="spacing" textLength="80" x="1141.75" y="286.2285">SlackWorker</text><line style="stroke:#181818;stroke-width:0.5;" x1="1034" x2="1297" y1="296.5" y2="296.5"/><rect fill="none" height="6" style="stroke:#C82930;stroke-width:1.0;" width="6" x="1041" y="307.8047"/><text fill="#000000" font-family="sans-serif" font-size="14" lengthAdjust="spacing" textLength="143" x="1053" y="315.0332">framework: SpringWeb</text><rect fill="none" height="6" style="stroke:#C82930;stroke-width:1.0;" width="6" x="1041" y="325.4141"/><text fill="#000000" font-family="sans-serif" font-size="14" lengthAdjust="spacing" textLength="239" x="1053" y="332.6426">instanceType: ARM_And_Preemptible</text><line style="stroke:#181818;stroke-width:0.5;" x1="1034" x2="1297" y1="339.7188" y2="339.7188"/><ellipse cx="1044" cy="354.0234" fill="#84BE84" rx="3" ry="3" style="stroke:#038048;stroke-width:1.0;"/><text fill="#000000" font-family="sans-serif" font-size="14" lengthAdjust="spacing" textLength="200" x="1053" y="358.252">getTasksFromRabbitMQ(): TCP</text><ellipse cx="1044" cy="371.6328" fill="#84BE84" rx="3" ry="3" style="stroke:#038048;stroke-width:1.0;"/><text fill="#000000" font-family="sans-serif" font-size="14" lengthAdjust="spacing" textLength="168" x="1053" y="375.8613">executeSlackTask(): HTTP</text><ellipse cx="1044" cy="389.2422" fill="#84BE84" rx="3" ry="3" style="stroke:#038048;stroke-width:1.0;"/><text fill="#000000" font-family="sans-serif" font-size="14" lengthAdjust="spacing" textLength="185" x="1053" y="393.4707">checkInMemoryCache(): TCP</text><ellipse cx="1044" cy="406.8516" fill="#84BE84" rx="3" ry="3" style="stroke:#038048;stroke-width:1.0;"/><text fill="#000000" font-family="sans-serif" font-size="14" lengthAdjust="spacing" textLength="125" x="1053" y="411.0801">emitMetrics(): HTTP</text></g><g id="elem_GMN51"><path d="M286.5,88.5 L286.5,114.8516 L482.5,114.8516 L482.5,98.5 L472.5,88.5 L286.5,88.5 " fill="#FEFFDD" style="stroke:#181818;stroke-width:0.5;"/><path d="M472.5,88.5 L472.5,98.5 L482.5,98.5 L472.5,88.5 " fill="#FEFFDD" style="stroke:#181818;stroke-width:1.0;"/><text fill="#000000" font-family="sans-serif" font-size="13" lengthAdjust="spacing" textLength="175" x="292.5" y="106.9951">Executes Slack-related tasks.</text></g><!--class EmailWorker--><g id="elem_EmailWorker"><rect codeLine="282" fill="#F1F1F1" height="153.6563" id="EmailWorker" rx="2.5" ry="2.5" style="stroke:#181818;stroke-width:0.5;" width="265" x="1933" y="264.5"/><ellipse cx="2021.25" cy="280.5" fill="#ADD1B2" rx="11" ry="11" style="stroke:#181818;stroke-width:1.0;"/><path d="M2024.0156,276.375 Q2024.1719,276.1563 2024.3594,276.0469 Q2024.5469,275.9375 2024.7656,275.9375 Q2025.1406,275.9375 2025.375,276.2031 Q2025.6094,276.4531 2025.6094,277.0625 L2025.6094,278.5156 Q2025.6094,279.125 2025.375,279.3906 Q2025.1406,279.6563 2024.7656,279.6563 Q2024.4219,279.6563 2024.2188,279.4531 Q2024.0156,279.2656 2023.9063,278.75 Q2023.8594,278.3906 2023.6719,278.2031 Q2023.3438,277.8281 2022.7344,277.6094 Q2022.125,277.3906 2021.5,277.3906 Q2020.7344,277.3906 2020.0938,277.7188 Q2019.4688,278.0469 2018.9688,278.7969 Q2018.4844,279.5469 2018.4844,280.5781 L2018.4844,281.6719 Q2018.4844,282.9063 2019.375,283.7344 Q2020.2656,284.5469 2021.8594,284.5469 Q2022.7969,284.5469 2023.4531,284.2969 Q2023.8438,284.1406 2024.2656,283.7031 Q2024.5313,283.4375 2024.6719,283.3594 Q2024.8281,283.2813 2025.0313,283.2813 Q2025.3594,283.2813 2025.6094,283.5469 Q2025.875,283.7969 2025.875,284.1406 Q2025.875,284.4844 2025.5313,284.8906 Q2025.0313,285.4688 2024.2344,285.7969 Q2023.1563,286.25 2021.8594,286.25 Q2020.3438,286.25 2019.1406,285.625 Q2018.1563,285.125 2017.4688,284.0625 Q2016.7813,282.9844 2016.7813,281.7031 L2016.7813,280.5469 Q2016.7813,279.2188 2017.3906,278.0781 Q2018.0156,276.9219 2019.1094,276.3125 Q2020.2031,275.6875 2021.4375,275.6875 Q2022.1719,275.6875 2022.8125,275.8594 Q2023.4688,276.0156 2024.0156,276.375 Z " fill="#000000"/><text fill="#000000" font-family="sans-serif" font-size="14" lengthAdjust="spacing" textLength="80" x="2041.75" y="286.2285">EmailWorker</text><line style="stroke:#181818;stroke-width:0.5;" x1="1934" x2="2197" y1="296.5" y2="296.5"/><rect fill="none" height="6" style="stroke:#C82930;stroke-width:1.0;" width="6" x="1941" y="307.8047"/><text fill="#000000" font-family="sans-serif" font-size="14" lengthAdjust="spacing" textLength="143" x="1953" y="315.0332">framework: SpringWeb</text><rect fill="none" height="6" style="stroke:#C82930;stroke-width:1.0;" width="6" x="1941" y="325.4141"/><text fill="#000000" font-family="sans-serif" font-size="14" lengthAdjust="spacing" textLength="239" x="1953" y="332.6426">instanceType: ARM_And_Preemptible</text><line style="stroke:#181818;stroke-width:0.5;" x1="1934" x2="2197" y1="339.7188" y2="339.7188"/><ellipse cx="1944" cy="354.0234" fill="#84BE84" rx="3" ry="3" style="stroke:#038048;stroke-width:1.0;"/><text fill="#000000" font-family="sans-serif" font-size="14" lengthAdjust="spacing" textLength="200" x="1953" y="358.252">getTasksFromRabbitMQ(): TCP</text><ellipse cx="1944" cy="371.6328" fill="#84BE84" rx="3" ry="3" style="stroke:#038048;stroke-width:1.0;"/><text fill="#000000" font-family="sans-serif" font-size="14" lengthAdjust="spacing" textLength="168" x="1953" y="375.8613">executeEmailTask(): HTTP</text><ellipse cx="1944" cy="389.2422" fill="#84BE84" rx="3" ry="3" style="stroke:#038048;stroke-width:1.0;"/><text fill="#000000" font-family="sans-serif" font-size="14" lengthAdjust="spacing" textLength="185" x="1953" y="393.4707">checkInMemoryCache(): TCP</text><ellipse cx="1944" cy="406.8516" fill="#84BE84" rx="3" ry="3" style="stroke:#038048;stroke-width:1.0;"/><text fill="#000000" font-family="sans-serif" font-size="14" lengthAdjust="spacing" textLength="125" x="1953" y="411.0801">emitMetrics(): HTTP</text></g><g id="elem_GMN55"><path d="M2632.5,88.5 L2632.5,114.8516 L2828.5,114.8516 L2828.5,98.5 L2818.5,88.5 L2632.5,88.5 " fill="#FEFFDD" style="stroke:#181818;stroke-width:0.5;"/><path d="M2818.5,88.5 L2818.5,98.5 L2828.5,98.5 L2818.5,88.5 " fill="#FEFFDD" style="stroke:#181818;stroke-width:1.0;"/><text fill="#000000" font-family="sans-serif" font-size="13" lengthAdjust="spacing" textLength="175" x="2638.5" y="106.9951">Executes Email-related tasks.</text></g><!--class InMemoryCache--><g id="elem_InMemoryCache"><rect codeLine="299" fill="#F1F1F1" height="153.6563" id="InMemoryCache" rx="2.5" ry="2.5" style="stroke:#181818;stroke-width:0.5;" width="286" x="1022.5" y="24.5"/><ellipse cx="1110.25" cy="40.5" fill="#ADD1B2" rx="11" ry="11" style="stroke:#181818;stroke-width:1.0;"/><path d="M1113.0156,36.375 Q1113.1719,36.1563 1113.3594,36.0469 Q1113.5469,35.9375 1113.7656,35.9375 Q1114.1406,35.9375 1114.375,36.2031 Q1114.6094,36.4531 1114.6094,37.0625 L1114.6094,38.5156 Q1114.6094,39.125 1114.375,39.3906 Q1114.1406,39.6563 1113.7656,39.6563 Q1113.4219,39.6563 1113.2188,39.4531 Q1113.0156,39.2656 1112.9063,38.75 Q1112.8594,38.3906 1112.6719,38.2031 Q1112.3438,37.8281 1111.7344,37.6094 Q1111.125,37.3906 1110.5,37.3906 Q1109.7344,37.3906 1109.0938,37.7188 Q1108.4688,38.0469 1107.9688,38.7969 Q1107.4844,39.5469 1107.4844,40.5781 L1107.4844,41.6719 Q1107.4844,42.9063 1108.375,43.7344 Q1109.2656,44.5469 1110.8594,44.5469 Q1111.7969,44.5469 1112.4531,44.2969 Q1112.8438,44.1406 1113.2656,43.7031 Q1113.5313,43.4375 1113.6719,43.3594 Q1113.8281,43.2813 1114.0313,43.2813 Q1114.3594,43.2813 1114.6094,43.5469 Q1114.875,43.7969 1114.875,44.1406 Q1114.875,44.4844 1114.5313,44.8906 Q1114.0313,45.4688 1113.2344,45.7969 Q1112.1563,46.25 1110.8594,46.25 Q1109.3438,46.25 1108.1406,45.625 Q1107.1563,45.125 1106.4688,44.0625 Q1105.7813,42.9844 1105.7813,41.7031 L1105.7813,40.5469 Q1105.7813,39.2188 1106.3906,38.0781 Q1107.0156,36.9219 1108.1094,36.3125 Q1109.2031,35.6875 1110.4375,35.6875 Q1111.1719,35.6875 1111.8125,35.8594 Q1112.4688,36.0156 1113.0156,36.375 Z " fill="#000000"/><text fill="#000000" font-family="sans-serif" font-size="14" lengthAdjust="spacing" textLength="102" x="1130.75" y="46.2285">InMemoryCache</text><line style="stroke:#181818;stroke-width:0.5;" x1="1023.5" x2="1307.5" y1="56.5" y2="56.5"/><rect fill="none" height="6" style="stroke:#C82930;stroke-width:1.0;" width="6" x="1030.5" y="67.8047"/><text fill="#000000" font-family="sans-serif" font-size="14" lengthAdjust="spacing" textLength="109" x="1042.5" y="75.0332">framework: Redis</text><line style="stroke:#181818;stroke-width:0.5;" x1="1023.5" x2="1307.5" y1="82.1094" y2="82.1094"/><ellipse cx="1033.5" cy="96.4141" fill="#84BE84" rx="3" ry="3" style="stroke:#038048;stroke-width:1.0;"/><text fill="#000000" font-family="sans-serif" font-size="14" lengthAdjust="spacing" textLength="233" x="1042.5" y="100.6426">workFlowComplete(id: long): boolean</text><ellipse cx="1033.5" cy="114.0234" fill="#84BE84" rx="3" ry="3" style="stroke:#038048;stroke-width:1.0;"/><text fill="#000000" font-family="sans-serif" font-size="14" lengthAdjust="spacing" textLength="260" x="1042.5" y="118.252">discordActionComplete(id: long): boolean</text><ellipse cx="1033.5" cy="131.6328" fill="#84BE84" rx="3" ry="3" style="stroke:#038048;stroke-width:1.0;"/><text fill="#000000" font-family="sans-serif" font-size="14" lengthAdjust="spacing" textLength="224" x="1042.5" y="135.8613">pollingCompleted(id: long): boolean</text><ellipse cx="1033.5" cy="149.2422" fill="#84BE84" rx="3" ry="3" style="stroke:#038048;stroke-width:1.0;"/><text fill="#000000" font-family="sans-serif" font-size="14" lengthAdjust="spacing" textLength="246" x="1042.5" y="153.4707">slackActionComplete(id: long): boolean</text><ellipse cx="1033.5" cy="166.8516" fill="#84BE84" rx="3" ry="3" style="stroke:#038048;stroke-width:1.0;"/><text fill="#000000" font-family="sans-serif" font-size="14" lengthAdjust="spacing" textLength="247" x="1042.5" y="171.0801">emailActionComplete(id: long): boolean</text></g><g id="elem_GMN59"><path d="M517.5,88.5 L517.5,114.8516 A0,0 0 0 0 517.5,114.8516 L987.5,114.8516 A0,0 0 0 0 987.5,114.8516 L987.5,106.5 L1022.37,101.5 L987.5,98.5 L987.5,98.5 L977.5,88.5 L517.5,88.5 A0,0 0 0 0 517.5,88.5 " fill="#FEFFDD" style="stroke:#181818;stroke-width:0.5;"/><path d="M977.5,88.5 L977.5,98.5 L987.5,98.5 L977.5,88.5 " fill="#FEFFDD" style="stroke:#181818;stroke-width:0.5;"/><text fill="#000000" font-family="sans-serif" font-size="13" lengthAdjust="spacing" textLength="449" x="523.5" y="106.9951">Small cache (&lt;20MB) with low TTL (2-3 minutes). Used to prevent duplication.</text></g><!--link GMN47 to PollingWorker--><g id="link_GMN47_PollingWorker"><path d="M143.01,114.75 C167.37,134.71 218.71,174.17 268.5,196 C420.74,262.74 608.92,301.78 732.83,322.1 " fill="none" id="GMN47-PollingWorker" style="stroke:#181818;stroke-width:1.0;stroke-dasharray:7.0,7.0;"/></g><!--link GMN51 to SlackWorker--><g id="link_GMN51_SlackWorker"><path d="M395.1,114.81 C413.8,135.59 454.93,177.2 499.5,196 C712.22,285.74 795.94,184.6 1015.5,256 C1023.03,258.45 1030.61,261.3 1038.15,264.43 " fill="none" id="GMN51-SlackWorker" style="stroke:#181818;stroke-width:1.0;stroke-dasharray:7.0,7.0;"/></g><!--link GMN55 to EmailWorker--><g id="link_GMN55_EmailWorker"><path d="M2718.98,114.79 C2699.55,134.79 2658.18,174.33 2615.5,196 C2481.8,263.88 2313.16,302.07 2198.1,321.92 " fill="none" id="GMN55-EmailWorker" style="stroke:#181818;stroke-width:1.0;stroke-dasharray:7.0,7.0;"/></g><!--reverse link PreemptibleCreator to NewEventWorker--><g id="link_PreemptibleCreator_NewEventWorker"><path codeLine="319" d="M2032.8339,194.7637 C2026.8939,198.4137 2036.32,192.57 2030.5,196 C1980.85,225.3 1966.18,228.52 1915.5,256 C1909.85,259.06 1904.09,262.21 1898.28,265.4 " fill="none" id="PreemptibleCreator-backto-NewEventWorker" style="stroke:#181818;stroke-width:1.0;stroke-dasharray:7.0,7.0;"/><polygon fill="none" points="2048.17,185.34,2029.6927,189.6517,2035.9752,199.8757,2048.17,185.34" style="stroke:#181818;stroke-width:1.0;"/></g><!--reverse link PreemptibleCreator to EmailWorker--><g id="link_PreemptibleCreator_EmailWorker"><path codeLine="320" d="M2122.4387,212.6638 C2112.3587,235.3038 2109.03,242.77 2099.36,264.48 " fill="none" id="PreemptibleCreator-backto-EmailWorker" style="stroke:#181818;stroke-width:1.0;stroke-dasharray:7.0,7.0;"/><polygon fill="none" points="2129.76,196.22,2116.9575,210.2234,2127.92,215.1042,2129.76,196.22" style="stroke:#181818;stroke-width:1.0;"/></g><!--reverse link PreemptibleCreator to DiscordWorker--><g id="link_PreemptibleCreator_DiscordWorker"><path codeLine="321" d="M2031.8807,196.119 C2026.0107,198.879 2036.4,193.75 2030.5,196 C1856.39,262.45 1791.91,195.91 1615.5,256 C1608.29,258.46 1601.02,261.26 1593.78,264.33 " fill="none" id="PreemptibleCreator-backto-DiscordWorker" style="stroke:#181818;stroke-width:1.0;stroke-dasharray:7.0,7.0;"/><polygon fill="none" points="2048.17,188.46,2029.3277,190.6893,2034.4337,201.5488,2048.17,188.46" style="stroke:#181818;stroke-width:1.0;"/></g><!--reverse link PreemptibleCreator to PollingWorker--><g id="link_PreemptibleCreator_PollingWorker"><path codeLine="322" d="M2031.8889,196.2913 C2025.9689,198.8713 2036.49,194 2030.5,196 C1601.87,339.14 1449.04,128.5 1015.5,256 C1009.76,257.69 1004.01,259.63 998.27,261.77 " fill="none" id="PreemptibleCreator-backto-PollingWorker" style="stroke:#181818;stroke-width:1.0;stroke-dasharray:7.0,7.0;"/><polygon fill="none" points="2048.39,189.1,2029.4918,190.791,2034.2861,201.7917,2048.39,189.1" style="stroke:#181818;stroke-width:1.0;"/></g><!--reverse link PreemptibleCreator to SlackWorker--><g id="link_PreemptibleCreator_SlackWorker"><path codeLine="323" d="M2031.8848,196.2282 C2025.9748,198.8582 2036.46,193.93 2030.5,196 C1729.29,300.73 1620.3,162.26 1315.5,256 C1307.64,258.42 1299.74,261.29 1291.9,264.49 " fill="none" id="PreemptibleCreator-backto-SlackWorker" style="stroke:#181818;stroke-width:1.0;stroke-dasharray:7.0,7.0;"/><polygon fill="none" points="2048.33,188.91,2029.4454,190.7465,2034.3242,201.71,2048.33,188.91" style="stroke:#181818;stroke-width:1.0;"/></g><!--reverse link PreemptibleCreator to Auth--><g id="link_PreemptibleCreator_Auth"><path codeLine="324" d="M2310.3793,195.4022 C2316.3793,198.6322 2306.53,193.16 2312.5,196 C2703.94,382.32 2924.6,193.33 3243.5,487 C3314.2,552.1 3351.43,656.27 3370.54,735.85 " fill="none" id="PreemptibleCreator-backto-Auth" style="stroke:#181818;stroke-width:1.0;stroke-dasharray:7.0,7.0;"/><polygon fill="none" points="2294.53,186.87,2307.5353,200.6853,2313.2234,190.1191,2294.53,186.87" style="stroke:#181818;stroke-width:1.0;"/></g><!--reverse link PreemptibleCreator to WorkflowController--><g id="link_PreemptibleCreator_WorkflowController"><path codeLine="325" d="M2207.5049,213.5596 C2212.7749,233.1096 2212.74,236.37 2215.5,256 C2239.41,426.19 2231.18,626.68 2222.62,744.96 " fill="none" id="PreemptibleCreator-backto-WorkflowController" style="stroke:#181818;stroke-width:1.0;stroke-dasharray:7.0,7.0;"/><polygon fill="none" points="2202.82,196.18,2201.7117,215.1213,2213.2981,211.998,2202.82,196.18" style="stroke:#181818;stroke-width:1.0;"/></g><!--reverse link InMemoryCache to NewEventWorker--><g id="link_InMemoryCache_NewEventWorker"><path codeLine="327" d="M1303.5497,186.6899 C1316.4697,193.1299 1313.52,191.03 1326.5,196 C1449.02,242.88 1492.67,209.93 1615.5,256 C1622.36,258.57 1629.27,261.43 1636.18,264.48 " fill="none" id="InMemoryCache-backto-NewEventWorker" style="stroke:#181818;stroke-width:1.0;"/><polygon fill="none" points="1287.44,178.66,1300.873,192.0598,1306.2263,181.32,1287.44,178.66" style="stroke:#181818;stroke-width:1.0;"/></g><!--reverse link InMemoryCache to EmailWorker--><g id="link_InMemoryCache_EmailWorker"><path codeLine="328" d="M1299.9746,186.3765 C1313.9946,193.1565 1312.2,191.36 1326.5,196 C1576.78,277.23 1664.69,176.41 1915.5,256 C1923.19,258.44 1930.93,261.31 1938.62,264.48 " fill="none" id="InMemoryCache-backto-EmailWorker" style="stroke:#181818;stroke-width:1.0;"/><polygon fill="none" points="1283.77,178.54,1297.3625,191.778,1302.5868,180.9749,1283.77,178.54" style="stroke:#181818;stroke-width:1.0;"/></g><!--reverse link InMemoryCache to DiscordWorker--><g id="link_InMemoryCache_DiscordWorker"><path codeLine="329" d="M1275.7621,189.9761 C1310.2921,217.3661 1335.12,237.06 1369.63,264.44 " fill="none" id="InMemoryCache-backto-DiscordWorker" style="stroke:#181818;stroke-width:1.0;"/><polygon fill="none" points="1261.66,178.79,1272.0334,194.6769,1279.4908,185.2754,1261.66,178.79" style="stroke:#181818;stroke-width:1.0;"/></g><!--reverse link InMemoryCache to PollingWorker--><g id="link_InMemoryCache_PollingWorker"><path codeLine="330" d="M1055.2388,189.9773 C1024.2188,214.5873 1003.76,230.82 972.03,255.98 " fill="none" id="InMemoryCache-backto-PollingWorker" style="stroke:#181818;stroke-width:1.0;"/><polygon fill="none" points="1069.34,178.79,1051.5097,185.2769,1058.9679,194.6777,1069.34,178.79" style="stroke:#181818;stroke-width:1.0;"/></g><!--reverse link InMemoryCache to SlackWorker--><g id="link_InMemoryCache_SlackWorker"><path codeLine="331" d="M1165.5,196.79 C1165.5,224.12 1165.5,236.91 1165.5,264.24 " fill="none" id="InMemoryCache-backto-SlackWorker" style="stroke:#181818;stroke-width:1.0;"/><polygon fill="none" points="1165.5,178.79,1159.5,196.79,1171.5,196.79,1165.5,178.79" style="stroke:#181818;stroke-width:1.0;"/></g><!--reverse link AuthDB to Auth--><g id="link_AuthDB_Auth"><path codeLine="333" d="M3227.4403,897.0491 C3239.2503,899.2291 3245.16,899.15 3256.97,898.98 " fill="none" id="AuthDB-backto-Auth" style="stroke:#181818;stroke-width:1.0;"/><polygon fill="#181818" points="3221.54,895.96,3229.6644,901.5273,3226.4569,896.8676,3231.1166,893.6602,3221.54,895.96" style="stroke:#181818;stroke-width:1.0;"/></g><!--link AuthDB to Auth--><g id="link_AuthDB_Auth"><path codeLine="334" d="M3221.54,800.04 C3233.35,797.86 3239.1606,796.7636 3250.9706,796.9336 " fill="none" id="AuthDB-to-Auth" style="stroke:#181818;stroke-width:1.0;"/><polygon fill="#181818" points="3256.97,797.02,3248.0285,792.8909,3251.9705,796.948,3247.9134,800.89,3256.97,797.02" style="stroke:#181818;stroke-width:1.0;"/></g><!--reverse link WorkflowDB to WorkflowController--><g id="link_WorkflowDB_WorkflowController"><path codeLine="336" d="M2603.9925,775.2626 C2581.3525,750.2626 2556.41,729.31 2523.83,716 C2468.42,693.37 2445.94,697.05 2389.17,716 C2368.72,722.83 2348.75,733.07 2330.03,744.89 " fill="none" id="WorkflowDB-backto-WorkflowController" style="stroke:#181818;stroke-width:1.0;"/><polygon fill="#181818" points="2608.02,779.71,2604.9436,770.3539,2604.6637,776.0039,2599.0138,775.724,2608.02,779.71" style="stroke:#181818;stroke-width:1.0;"/></g><!--link WorkflowDB to WorkflowController--><g id="link_WorkflowDB_WorkflowController"><path codeLine="337" d="M2613.05,779.85 C2587.59,747.97 2552.78,713.28 2512.17,696 C2466.63,676.63 2447.47,679.46 2400.83,696 C2370.34,706.81 2345.9304,721.2618 2320.0904,741.3118 " fill="none" id="WorkflowDB-to-WorkflowController" style="stroke:#181818;stroke-width:1.0;"/><polygon fill="#181818" points="2315.35,744.99,2324.9127,742.633,2319.3003,741.9248,2320.0084,736.3125,2315.35,744.99" style="stroke:#181818;stroke-width:1.0;"/></g><!--reverse link NewEventWorker to RabbitMQ--><g id="link_NewEventWorker_RabbitMQ"><path codeLine="339" d="M1707.8245,434.0191 C1690.6045,461.3491 1680.79,476.91 1663.56,504.24 " fill="none" id="NewEventWorker-backto-RabbitMQ" style="stroke:#181818;stroke-width:1.0;"/><polygon fill="none" points="1717.42,418.79,1702.7481,430.8206,1712.9009,437.2176,1717.42,418.79" style="stroke:#181818;stroke-width:1.0;"/></g><!--reverse link EmailWorker to RabbitMQ--><g id="link_EmailWorker_RabbitMQ"><path codeLine="340" d="M1916.9427,426.2698 C1911.1227,429.4398 1921.16,423.96 1915.5,427 C1855.46,459.26 1787.93,493.94 1732.17,522.17 " fill="none" id="EmailWorker-backto-RabbitMQ" style="stroke:#181818;stroke-width:1.0;"/><polygon fill="none" points="1932.75,417.66,1914.0728,421.0007,1919.8126,431.5389,1932.75,417.66" style="stroke:#181818;stroke-width:1.0;"/></g><!--reverse link SlackWorker to RabbitMQ--><g id="link_SlackWorker_RabbitMQ"><path codeLine="341" d="M1313.9429,426.5328 C1319.8829,429.4628 1309.66,424.32 1315.5,427 C1386.81,459.7 1411.84,450.91 1481.5,487 C1491.57,492.22 1501.77,498.09 1511.81,504.28 " fill="none" id="SlackWorker-backto-RabbitMQ" style="stroke:#181818;stroke-width:1.0;"/><polygon fill="none" points="1297.8,418.57,1311.2887,431.9137,1316.5972,421.1518,1297.8,418.57" style="stroke:#181818;stroke-width:1.0;"/></g><!--reverse link DiscordWorker to RabbitMQ--><g id="link_DiscordWorker_RabbitMQ"><path codeLine="342" d="M1523.1755,434.0191 C1540.3955,461.3491 1550.21,476.91 1567.44,504.24 " fill="none" id="DiscordWorker-backto-RabbitMQ" style="stroke:#181818;stroke-width:1.0;"/><polygon fill="none" points="1513.58,418.79,1518.0991,437.2176,1528.2519,430.8206,1513.58,418.79" style="stroke:#181818;stroke-width:1.0;"/></g><!--reverse link PollingWorker to RabbitMQ--><g id="link_PollingWorker_RabbitMQ"><path codeLine="343" d="M1014.6987,427.2795 C1020.5387,429.6295 1009.68,425.07 1015.5,427 C1213.68,492.79 1286.71,411.75 1481.5,487 C1493.67,491.7 1505.8,497.73 1517.5,504.46 " fill="none" id="PollingWorker-backto-RabbitMQ" style="stroke:#181818;stroke-width:1.0;"/><polygon fill="none" points="998,420.56,1012.4589,432.8458,1016.9386,421.7133,998,420.56" style="stroke:#181818;stroke-width:1.0;"/></g><!--reverse link RabbitMQ to WorkflowController--><g id="link_RabbitMQ_WorkflowController"><path codeLine="345" d="M1748.6816,641.4111 C1844.3616,683.7311 1963.85,736.58 2066.87,782.15 " fill="none" id="RabbitMQ-backto-WorkflowController" style="stroke:#181818;stroke-width:1.0;"/><polygon fill="none" points="1732.22,634.13,1746.2546,646.8983,1751.1087,635.9239,1732.22,634.13" style="stroke:#181818;stroke-width:1.0;"/></g><!--reverse link WorkflowController to APIGateway--><g id="link_WorkflowController_APIGateway"><path codeLine="347" d="M2372.611,958.6766 C2379.631,961.9866 2370.42,957.34 2377.5,960 C2577.47,1035.28 2653.71,946.93 2854.5,1020 C2860.1,1022.04 2865.7,1024.35 2871.26,1026.87 " fill="none" id="WorkflowController-backto-APIGateway" style="stroke:#181818;stroke-width:1.0;"/><polygon fill="none" points="2356.33,951,2370.0521,964.1036,2375.1698,953.2496,2356.33,951" style="stroke:#181818;stroke-width:1.0;"/></g><!--reverse link Auth to APIGateway--><g id="link_Auth_APIGateway"><path codeLine="348" d="M3241.8905,958.6146 C3236.0905,962.5546 3245.2,956.29 3239.5,960 C3194.86,989.07 3144.11,1018.6 3099.77,1043.32 " fill="none" id="Auth-backto-APIGateway" style="stroke:#181818;stroke-width:1.0;"/><polygon fill="none" points="3256.78,948.5,3238.519,953.6514,3245.2621,963.5777,3256.78,948.5" style="stroke:#181818;stroke-width:1.0;"/></g><!--reverse link ServiceDiscovery to WorkflowController--><g id="link_ServiceDiscovery_WorkflowController"><path codeLine="350" d="M2930.4588,676.2421 C2924.5888,678.6421 2935.37,674.04 2929.5,676 C2695.46,754.26 2609.18,651 2377.5,736 C2370.4,738.61 2363.31,741.58 2356.28,744.85 " fill="none" id="ServiceDiscovery-backto-WorkflowController" style="stroke:#181818;stroke-width:1.0;"/><polygon fill="none" points="2947.12,669.43,2928.1881,670.6883,2932.7295,681.7958,2947.12,669.43" style="stroke:#181818;stroke-width:1.0;"/></g><!--reverse link ServiceDiscovery to Auth--><g id="link_ServiceDiscovery_Auth"><path codeLine="351" d="M3207.3127,687.9644 C3229.4427,707.2744 3239.4,715.97 3262.16,735.84 " fill="none" id="ServiceDiscovery-backto-Auth" style="stroke:#181818;stroke-width:1.0;"/><polygon fill="none" points="3193.75,676.13,3203.3679,692.4853,3211.2575,683.4435,3193.75,676.13" style="stroke:#181818;stroke-width:1.0;"/></g><!--reverse link ServiceDiscovery to APIGateway--><g id="link_ServiceDiscovery_APIGateway"><path codeLine="352" d="M2931.9902,676.4476 C2885.7802,705.8276 2859.62,724.65 2853.5,736 C2806.28,823.65 2817.49,867.19 2853.5,960 C2861.8,981.38 2874.89,1001.53 2889.69,1019.62 " fill="none" id="ServiceDiscovery-backto-APIGateway" style="stroke:#181818;stroke-width:1.0;"/><polygon fill="none" points="2947.18,666.79,2928.771,671.3843,2935.2094,681.5109,2947.18,666.79" style="stroke:#181818;stroke-width:1.0;"/></g><!--reverse link APIGateway to ReverseProxy--><g id="link_APIGateway_ReverseProxy"><path codeLine="354" d="M2985.5,1209 C2985.5,1228.91 2985.5,1231.86 2985.5,1250.88 " fill="none" id="APIGateway-backto-ReverseProxy" style="stroke:#181818;stroke-width:1.0;"/><polygon fill="none" points="2985.5,1191,2979.5,1209,2991.5,1209,2985.5,1191" style="stroke:#181818;stroke-width:1.0;"/></g><!--reverse link ReverseProxy to Frontend--><g id="link_ReverseProxy_Frontend"><path codeLine="355" d="M2985.5,1405.17 C2985.5,1423.6 2985.5,1426.15 2985.5,1446.6 " fill="none" id="ReverseProxy-backto-Frontend" style="stroke:#181818;stroke-width:1.0;"/><polygon fill="none" points="2985.5,1387.17,2979.5,1405.17,2991.5,1405.17,2985.5,1387.17" style="stroke:#181818;stroke-width:1.0;"/></g><!--reverse link Frontend to User--><g id="link_Frontend_User"><path codeLine="356" d="M2985.5,1707.25 C2985.5,1727.31 2985.5,1729.75 2985.5,1748.68 " fill="none" id="Frontend-backto-User" style="stroke:#181818;stroke-width:1.0;"/><polygon fill="none" points="2985.5,1689.25,2979.5,1707.25,2991.5,1707.25,2985.5,1689.25" style="stroke:#181818;stroke-width:1.0;"/></g><!--SRC=[pLdTRzis47_NNy6t9bYS3jsR4GomuxG9bg_6phgtWAREjc29r4WgZh7kVzyT9LdKbnCNxT0y13RlUBpxtITf4NDZsAC1pVu90eP_xz-nozdiVd0du-q9Ctm1z3-1WOaii7Vl7TE0SI70c9bQWnooSwNM4HGK3GiDPbKdbQBljNgEGWXPo2slf472etZ8fbP7SbcifIibuJPBvg0Rb0pLbQXISmEQib4wt2q7_mQ1LAXr30lBrCBPEHpw2hgj8nOhkMG8XSLjp1BXX4u9yNDf3xChO6Qbj6Lnz8ma3u7J06J8wAWW40xHZrf9Iui5gWEsqAWnghSUiWVWmZxTmeijQ94qbai1issAHlq9Ma1ymoLVGhX3Rip5cWIUFpnEIk1-OK83j_05nIvYjJdgyChnaCsLYe7BOai8CHou9L5XjDWUj2MEZ2qtc5Tsb2QEChjYYqmA6od9uyXkAqDDj9HNykYu5cpvybrcM-leCR3tHK0GzO8Yp2T- -3YgrbkHKlflEAmZx2GyWCsqDCpg35YqOAFxgq_8i-5R52t0HGT5Iu8semzFsQsonEUjiGqtBDMAO87GZvyUDMe6EIsck6vsyZ1GNHATC0aGvc5C8SpGJleeb5n4EddhIRZhhOUO50H61zkik7KcfXgU8vKP9btovec4zhQpv06UGHl0el2oxSoKsqzNjtyLoojhKpDars3DXHHwctPdp-XcKkKCh3YgeaqLHqxA9KUhLdmDCz1993d56mK35Rvf6S2AXsCUEy6gyh0f-Tenurip7FOUvEHVgXXn9RH2XOXAHlMC8JUp1IUON1sCChvOHEA4N8W752NA4Tk8Ug7OXUSqfS9u7gii_1RmOhLSudw2G6RnBftmmEieYMn1SkYKcOQL64nZDTFnc6DGF81HSUQ3tyO-d4H6ABHxsmzyPVHmwDlZf67DDumpMWsv3dS6km_0GnB0AMOXIMqqZw4lG_nJTf1MH-JGCeUjS-H5fc7DsK9fPgFboiPRz62MnfWC4YnjHdZ-pi1OS-8iPdDdCadXGYjZVArCozLJqC-HW1q-dGxFbUZszSFDFbzpBCRNbHyQ7Y9geS2vaXA4xMUu1Axj6AjeWsLJr5GKOBMAOz3zvxLvkuzjyxLFRyLF4yccVwSkTd16m04WPyNCnMB7OsfkkxLmvmdokOWpZ2z4TBC23IsNCuwBPYl52Wil5ijs9bCpxC_XAOXCOuViS-tJI8PFzrvK7vpMD6LHmxbMI6mrs9AAZQARWJhpOzgGwRLhlu3a4zQe6X9QqaJkxPbg-eeuP-VtJJP2Rp8kYUJn7DKlhVX0Z6bl7yvVOFxZ83RezFFQV35J3tm-Z-pDvqPW4-l4JMvluNnCmyE4lifwg0DAWNKdkBIRAsjLGedNzeOJKtmr-NJhwY4cHw9aP9KhicMMTumKdZySiahlIQ9UvtvB6qJJJPO03b89ZW09O7FFcfsliA74-7C6MTuTFGHTF7XcT8lm64ohwIRecIu9EnTeQaZaWJPSPKSByofMUa32XWcUSa5JkPACV4zDg-M0ol6TmDzfBc9ucdw-VfgCzu5iK9TTM9hnzYfi3Wd-3QE3diDGSdGmPBKagJ6qMaHbLTNnynh3hYRTnVkx040treRQIx0Tgxan7OGSXXgXFK0vTMjt6whlQ5fxP2z2jxBjeAcYp5p24_J5YrXnkOHw1hW-giDzB2aM2yhVFImcnWlpFWPta-bcQ8_sXTLvULefB9p-_FW7N-2aDmV1wSQ52n4sU9FWV81NfqIvYK1PAZcsNR5kONFn3DBcgdnBjJgi5M7yb4SQAbP-mM-MePlyudSdUvXM8DPNyiRPUCxnQnDYt4DN0D5nRR8g9QZgvkS0kxEDgpcMcxLnfKXXGTKkW72gEgKcGULsTpb59ZJ6HKP7MvZuCVM_O3mZnVlnXHSSu2mKUX5pi-5-1snhLhjz5_cnEq066cB4EinnxcYdVgBjmMtChLXzD-Gq_j-3tPmE8yqApWEHUrDelmNU6ZXktqGXj4wzF12fKqgCKatF8JRNjWtoj2fLFr5eEgr-K61w5jV3qX5U2ygBgdB_H7WvhNuGNfx5TRmSuJMyQeVtl4XZqtsjRtzqatgIqdtXA0g7xjMy_RoS5vQHUyHzdRtev2LZsC_f6lfRnRhc_Zfpgz7NeCel_wwD2mVTqTc7Ns_6nsmJuTqSqM2psJKx-Z3uZIMH97ySd-QZirNk5HJR6WkpD8w4U_dpFHCWpiKJ1b8Sqa77tUNiw-bfiqNsiVb1qiTJxmXzNFN2riVb9t4V3qsMlSIEwrzGZzMphuD1q_mE3j_o3dBTw0w6khqT3BwfGJ7SdmrowuglWz_phu5t0KAM3Xiz1jpK1K9Z97Ggx4PGl_hLANuVgLFguq-TLc_nTLgm6_VTUfUk7IygZhTwBdK8jHQ3rljbtn7TZ0xi7f9tYlSWdflcFT87jTyV7Bdy6IJO_O3dbkdw5Fm7]--></g></svg>